<svg width="34px" height="34px" viewBox="0 0 34 34" version="1.1" xmlns="http://www.w3.org/2000/svg" xmlns:xlink="http://www.w3.org/1999/xlink">
    <g id="Symbols" stroke="none" stroke-width="1" fill="none" fill-rule="evenodd">
        <g id="bitcoin-cash" fill-rule="nonzero">
            <g id="Group">
                <g id="bitcoin-cash" fill="#212655">
                    <g id="bitcoin">
                        <path d="M33.4911554,21.1125084 C31.2203511,30.2196348 21.9952748,35.7621098 12.8860234,33.4910391 C3.78049107,31.2204996 -1.76263056,21.9959682 0.509236411,12.8893731 C2.77897815,3.78118433 12.0040544,-1.76182192 21.1106493,0.508717539 C30.2193695,2.779257 35.7619598,12.0048509 33.4911554,21.1125084 Z" id="coin"></path>
                    </g>
                    <g id="Vector_1_" transform="translate(13.000000, 13.000000)">
                        <path d="M6.65348293,2.12489307 C6.29642429,1.22412318 5.32104459,1.11633875 4.1801987,1.2780154 L3.82314006,0 L2.95226533,0.192472198 L3.30061522,1.43969204 C3.07418779,1.49358426 2.83905161,1.54747648 2.61262419,1.60136869 L2.26427429,0.346449957 L1.39339957,0.538922156 L1.7504582,1.81693755 C1.56757451,1.86313088 1.37598207,1.90932421 1.20180713,1.94781865 L1.20180713,1.94011976 L0,2.20958084 L0.235136177,3.04106074 C0.235136177,3.04106074 0.870874728,2.88708298 0.862165981,2.90248075 C1.21051587,2.82549187 1.37598207,2.97946963 1.4543608,3.13344739 L1.86367192,4.5962361 C1.89850691,4.58853721 1.92463315,4.58083832 1.95946814,4.58083832 L1.86367192,4.60393499 L2.42974049,6.65183918 C2.43844924,6.75192472 2.42103175,6.92899914 2.17718682,6.98289136 C2.19460432,6.99059025 1.54144827,7.12147134 1.54144827,7.12147134 L1.62853574,8.09153122 L2.76067289,7.83746792 C2.96968282,7.79127459 3.17869276,7.74508127 3.37899395,7.70658683 L3.73605258,9 L4.60692731,8.8075278 L4.24986867,7.52181352 C4.4937136,7.47562019 4.72014103,7.42172797 4.94656846,7.37553464 L5.3036271,8.65355004 L6.17450182,8.46107784 L5.81744319,7.16766467 C7.25438649,6.7673225 8.18622245,6.20530368 7.96850377,4.94268606 C7.79432882,3.92643285 7.14988152,3.60307956 6.27029804,3.61077844 C6.71444416,3.26432849 6.91474534,2.78699743 6.65348293,2.12489307 Z M6.20933681,5.16595381 C6.47930798,6.13601369 4.59821857,6.43627032 4.0147325,6.56715141 L3.5357514,4.8502994 C4.12794621,4.72711719 5.9306569,4.16509837 6.20933681,5.16595381 Z M5.1381609,2.84088965 C5.38200582,3.71856287 3.81443131,3.96492729 3.32674146,4.07271172 L2.8913041,2.51753636 C3.37899395,2.40205304 4.87689848,1.9170231 5.1381609,2.84088965 Z" id="path2_fill"></path>
                    </g>
                </g>
                <g id="bitcoin-cash" fill="#39CD65">
                    <g id="bitcoin">
                        <path d="M33.4911554,21.1125084 C31.2203511,30.2196348 21.9952748,35.7621098 12.8860234,33.4910391 C3.78049107,31.2204996 -1.76263056,21.9959682 0.509236411,12.8893731 C2.77897815,3.78118433 12.0040544,-1.76182192 21.1106493,0.508717539 C30.2193695,2.779257 35.7619598,12.0048509 33.4911554,21.1125084 Z" id="coin"></path>
                    </g>
                </g>
                <path d="M24.9555702,14.8444093 C25.3092971,12.5327345 23.5090103,11.2900328 21.0473596,10.4610221 L21.8458828,7.32956593 L19.8962199,6.85452706 L19.1187981,9.90346223 C18.606255,9.77859487 18.0798294,9.66078523 17.5567355,9.5440614 L18.3397104,6.47503887 L16.3911581,6 L15.5920795,9.13037041 C15.1678293,9.03590554 14.7513533,8.94252647 14.347094,8.84426128 L14.3493152,8.83448906 L11.6605462,8.17812107 L11.1418948,10.2140019 C11.1418948,10.2140019 12.5884547,10.5381142 12.5579131,10.5582015 C13.3475516,10.7509316 13.490264,11.2618019 13.4663861,11.6668065 L12.5568025,15.2342127 C12.6112221,15.2477852 12.6817453,15.2673297 12.7594875,15.2977322 C12.6945173,15.281988 12.6251046,15.2646152 12.5534707,15.2477852 L11.2784989,20.2451941 C11.1818765,20.4797276 10.9369886,20.8315278 10.3850191,20.697974 C10.4044547,20.725662 8.96789018,20.3521457 8.96789018,20.3521457 L8,22.5340671 L10.5371717,23.152432 C11.0091778,23.26807 11.4717438,23.389137 11.9270909,23.5031464 L11.1202381,26.6704341 L13.0676797,27.1454729 L13.8667583,24.0118451 C14.398737,24.1529995 14.9151672,24.2832959 15.4204914,24.4059917 L14.6241893,27.5249611 L16.5738522,28 L17.380705,24.8386842 C20.705294,25.4537917 23.2052604,25.2056857 24.2575564,22.2658737 C25.1055015,19.8988229 24.2153535,18.5334255 22.4661544,17.6430669 C23.7400156,17.355872 24.6995763,16.5366335 24.9555702,14.8444093 Z M20.5009431,20.951509 C19.8984412,23.3185598 15.8219742,22.0389408 14.5003571,21.718086 L15.570978,17.5219999 C16.8925952,17.8444834 21.1306548,18.4829356 20.5009431,20.951509 Z M21.1040003,14.8102065 C20.554252,16.9633541 17.161361,15.8694075 16.0607538,15.6012141 L17.0314205,11.7954742 C18.1320277,12.0636675 21.6765159,12.5642228 21.1040003,14.8102065 Z" id="symbol" fill="#FFFFFF" transform="translate(16.500000, 17.000000) rotate(-30.000000) translate(-16.500000, -17.000000) "></path>
            </g>
        </g>
    </g>
</svg>