<svg width="34px" height="34px" viewBox="0 0 34 34" version="1.1" xmlns="http://www.w3.org/2000/svg" xmlns:xlink="http://www.w3.org/1999/xlink">
    <g id="Symbols" stroke="none" stroke-width="1" fill="none" fill-rule="evenodd">
        <g id="ethereum">
            <g>
                <g id="bitcoin" fill="#515989" fill-rule="nonzero">
                    <path d="M33.4911554,21.1125084 C31.2203511,30.2196348 21.9952748,35.7621098 12.8860234,33.4910391 C3.78049107,31.2204996 -1.76263056,21.9959682 0.509236411,12.8893731 C2.77897815,3.78118433 12.0040544,-1.76182192 21.1106493,0.508717539 C30.2193695,2.779257 35.7619598,12.0048509 33.4911554,21.1125084 Z" id="coin"></path>
                </g>
                <g id="Group" transform="translate(9.000000, 5.000000)" fill="#FFFFFF">
                    <g id="ethereum-seeklogo.com" transform="translate(0.000000, 13.000000)" fill-rule="nonzero">
                        <path d="M7.997625,4.63009257 L15.9999437,0.0356497238 L7.99756875,10.9943238 L7.99745846,10.9940105 L0,0.0355646409 L7.997625,4.63003978 Z" id="Combined-Shape"></path>
                    </g>
                    <path d="M0,12.2861025 L7.85555012,0 L7.85555012,8.94857095 L0,12.2861025 Z M0.183709396,12.5137012 L7.84657993,9.23013979 L7.84657993,16.7289441 L0.183709396,12.5137012 Z M15.8073204,12.5137012 L8.14444988,16.7289441 L8.14444988,9.23013979 L15.8073204,12.5137012 Z M16,12.2861025 L8.14444988,8.94857095 L8.14444988,0 L16,12.2861025 Z" id="Combined-Shape"></path>
                </g>
            </g>
        </g>
    </g>
</svg>