<svg width="34px" height="34px" viewBox="0 0 34 34" version="1.1" xmlns="http://www.w3.org/2000/svg" xmlns:xlink="http://www.w3.org/1999/xlink">
    <g id="Symbols" stroke="none" stroke-width="1" fill="none" fill-rule="evenodd">
        <g id="bitcoin" fill-rule="nonzero">
            <g>
                <path d="M33.4911554,21.1125084 C31.2203511,30.2196348 21.9952748,35.7621098 12.8860234,33.4910391 C3.78049107,31.2204996 -1.76263056,21.9959682 0.509236411,12.8893731 C2.77897815,3.78118433 12.0040544,-1.76182192 21.1106493,0.508717539 C30.2193695,2.779257 35.7619598,12.0048509 33.4911554,21.1125084 Z" id="coin" fill="#F5A623"></path>
                <path d="M24.9555702,14.8444093 C25.3092971,12.5327345 23.5090103,11.2900328 21.0473596,10.4610221 L21.8458828,7.32956593 L19.8962199,6.85452706 L19.1187981,9.90346223 C18.606255,9.77859487 18.0798294,9.66078523 17.5567355,9.5440614 L18.3397104,6.47503887 L16.3911581,6 L15.5920795,9.13037041 C15.1678293,9.03590554 14.7513533,8.94252647 14.347094,8.84426128 L14.3493152,8.83448906 L11.6605462,8.17812107 L11.1418948,10.2140019 C11.1418948,10.2140019 12.5884547,10.5381142 12.5579131,10.5582015 C13.3475516,10.7509316 13.490264,11.2618019 13.4663861,11.6668065 L12.5568025,15.2342127 C12.6112221,15.2477852 12.6817453,15.2673297 12.7594875,15.2977322 C12.6945173,15.281988 12.6251046,15.2646152 12.5534707,15.2477852 L11.2784989,20.2451941 C11.1818765,20.4797276 10.9369886,20.8315278 10.3850191,20.697974 C10.4044547,20.725662 8.96789018,20.3521457 8.96789018,20.3521457 L8,22.5340671 L10.5371717,23.152432 C11.0091778,23.26807 11.4717438,23.389137 11.9270909,23.5031464 L11.1202381,26.6704341 L13.0676797,27.1454729 L13.8667583,24.0118451 C14.398737,24.1529995 14.9151672,24.2832959 15.4204914,24.4059917 L14.6241893,27.5249611 L16.5738522,28 L17.380705,24.8386842 C20.705294,25.4537917 23.2052604,25.2056857 24.2575564,22.2658737 C25.1055015,19.8988229 24.2153535,18.5334255 22.4661544,17.6430669 C23.7400156,17.355872 24.6995763,16.5366335 24.9555702,14.8444093 Z M20.9372833,21.5505876 C20.3411374,24.0012068 16.3076748,22.6764111 15,22.3442285 L16.0593265,18 C17.3670013,18.3338688 21.5603519,18.9948615 20.9372833,21.5505876 Z M20.939159,14.790336 C20.400757,16.7832177 17.0778918,15.7706971 16,15.5224662 L16.9506331,12 C18.0285249,12.2482309 21.4998586,12.7115281 20.939159,14.790336 Z" id="symbol" fill="#FFFFFF"></path>
            </g>
        </g>
    </g>
</svg>