<svg width="154px" height="154px" viewBox="0 0 154 154" version="1.1" xmlns="http://www.w3.org/2000/svg" xmlns:xlink="http://www.w3.org/1999/xlink">
    <defs>
        <circle id="path-1" cx="50" cy="50" r="50"></circle>
        <filter x="-45.0%" y="-39.0%" width="190.0%" height="190.0%" filterUnits="objectBoundingBox" id="filter-2">
            <feOffset dx="0" dy="6" in="SourceAlpha" result="shadowOffsetOuter1"></feOffset>
            <feGaussianBlur stdDeviation="14" in="shadowOffsetOuter1" result="shadowBlurOuter1"></feGaussianBlur>
            <feColorMatrix values="0 0 0 0 0.552941176   0 0 0 0 0.890196078   0 0 0 0 0.498039216  0 0 0 1 0" type="matrix" in="shadowBlurOuter1"></feColorMatrix>
        </filter>
    </defs>
    <g id="Main" stroke="none" stroke-width="1" fill="none" fill-rule="evenodd">
        <g id="Icon" transform="translate(-90.000000, -103.000000)">
            <g id="Group" transform="translate(117.000000, 124.000000)">
                <g id="Oval-5">
                    <use fill="black" fill-opacity="1" filter="url(#filter-2)" xlink:href="#path-1"></use>
                    <use fill="#8DE37F" fill-rule="evenodd" xlink:href="#path-1"></use>
                </g>
                <g id="if_18_2529935" transform="translate(22.000000, 19.000000)" fill="#FFFFFF" fill-rule="nonzero">
                    <path d="M50.6846591,13.1488178 L47.203125,13.1488178 L39.9971591,0.806675939 C39.7542614,0.403337969 39.3494318,0.161335188 38.9446023,0.0806675939 C38.5397727,0 38.0539773,0.0806675939 37.6491477,0.322670376 L29.390625,5.96940195 L24.9375,0.564673157 C24.6946023,0.242002782 24.2897727,0 23.8039773,0 C23.3181818,0 22.9133523,0.161335188 22.5894886,0.484005563 L10.0397727,13.1488178 L6.31534091,13.1488178 C2.83380682,13.1488178 0,15.9721836 0,19.4408901 L0,51.7079277 C0,55.1766342 2.83380682,58 6.31534091,58 L50.6846591,58 C54.1661932,58 57,55.1766342 57,51.7079277 L57,19.4408901 C57,15.9721836 54.1661932,13.1488178 50.6846591,13.1488178 Z M53.7613636,41.8664812 L43.4786932,41.8664812 C39.9971591,41.8664812 37.1633523,39.0431154 37.1633523,35.5744089 C37.1633523,32.1057024 39.9971591,29.2823366 43.4786932,29.2823366 L53.7613636,29.2823366 L53.7613636,41.8664812 Z M38.0539773,3.9527121 L43.4786932,13.1488178 L35.2201705,13.1488178 L31.4147727,8.55076495 L38.0539773,3.9527121 Z M23.6420455,4.03337969 L31.0909091,13.1488178 L14.5738636,13.1488178 L23.6420455,4.03337969 Z M50.6846591,54.8539638 L6.31534091,54.8539638 C4.61505682,54.8539638 3.23863636,53.4826147 3.23863636,51.7885953 L3.23863636,19.5215577 C3.23863636,17.8275382 4.61505682,16.4561892 6.31534091,16.4561892 L50.6846591,16.4561892 C52.3849432,16.4561892 53.7613636,17.8275382 53.7613636,19.5215577 L53.7613636,26.1363004 L43.4786932,26.1363004 C38.2159091,26.1363004 33.9247159,30.4116829 33.9247159,35.6550765 C33.9247159,40.8984701 38.2159091,45.093185 43.4786932,45.093185 L53.7613636,45.093185 L53.7613636,51.7079277 C53.7613636,53.4826147 52.3849432,54.8539638 50.6846591,54.8539638 Z" id="Shape" stroke="#FFFFFF" stroke-width="2"></path>
                    <circle id="Oval" cx="43.5" cy="35.5" r="2.5"></circle>
                </g>
            </g>
        </g>
    </g>
</svg>