<svg width="24px" height="24px" viewBox="0 0 24 24" version="1.1" xmlns="http://www.w3.org/2000/svg" xmlns:xlink="http://www.w3.org/1999/xlink">
    <defs>
        <path d="M20.2615521,4.76450793 L15.6038061,9.42225397 C15.2601447,9.76591534 14.7029595,9.76591534 14.3592982,9.42225397 C14.0156368,9.07859259 14.0156368,8.52140741 14.3592982,8.17774603 L19.0170442,3.52 L15.8615521,3.52 C15.3755416,3.52 14.9815521,3.12601058 14.9815521,2.64 C14.9815521,2.15398942 15.3755416,1.76 15.8615521,1.76 L21.1415521,1.76 C21.6275627,1.76 22.0215521,2.15398942 22.0215521,2.64 L22.0215521,7.92 C22.0215521,8.40601058 21.6275627,8.8 21.1415521,8.8 C20.6555416,8.8 20.2615521,8.40601058 20.2615521,7.92 L20.2615521,4.76450793 Z M21.1415449,19.2860281 C21.1445622,20.0293796 20.8340482,20.7395571 20.2862877,21.2420897 C19.7385271,21.7446223 19.0042853,21.9929364 18.2480925,21.9244507 C15.4033542,21.6153466 12.6707829,20.6432731 10.2767892,19.0907321 C8.04152048,17.6703494 6.14640277,15.7752317 4.73018584,13.5464557 C3.16781649,11.1347101 2.19552224,8.38884979 1.89072341,5.51760039 C1.82402805,4.77955187 2.07060246,4.04745359 2.57021424,3.50014018 C3.06982602,2.95282678 3.77646781,2.64069826 4.51835213,2.64 L7.14969148,2.64004262 C8.47479203,2.62700081 9.60423259,3.5983197 9.79079679,4.91853341 C9.89354683,5.69759294 10.0841001,6.46252811 10.3580782,7.19676242 C10.7207284,8.16151746 10.4887781,9.24910669 9.7606061,9.98545397 L9.12956464,10.6164954 C10.1643179,12.2397863 11.5417704,13.6172383 13.1650619,14.6519908 L13.7995897,14.017474 C14.5324454,13.2927741 15.6200347,13.0608238 16.5828044,13.4227304 C17.319024,13.6974521 18.0839592,13.8880053 18.8708814,13.9918284 C20.1942628,14.1785252 21.1687017,15.3244856 21.1415521,16.6594356 L21.1415449,19.2860281 Z M19.3815521,16.6496 C19.3929065,16.1810803 19.0674705,15.7969901 18.6328855,15.7356447 C17.7222281,15.6155382 16.8280809,15.3927969 15.9655146,15.070926 C15.6439295,14.9500426 15.2813998,15.0273594 15.0406061,15.265454 L13.9230061,16.383054 C13.6428907,16.6631694 13.210138,16.7215905 12.865773,16.5257792 C10.5249576,15.1947548 8.58679733,13.2565945 7.25577296,10.9157792 C7.05996163,10.5714142 7.11838272,10.1386615 7.39849816,9.85854603 L8.5126261,8.74443758 C8.75419273,8.50015233 8.8315095,8.13762259 8.70988255,7.81405226 C8.38875523,6.9534712 8.16601394,6.05932401 8.04701278,5.15675738 C7.98519316,4.71938307 7.60871297,4.39561011 7.15835213,4.4 L4.51918085,4.39999961 C4.27216232,4.40023223 4.03661505,4.50427507 3.87007779,4.68671287 C3.70354053,4.86915068 3.62134906,5.11318344 3.64223182,5.34547238 C3.91648971,7.92810063 4.79524916,10.4098089 6.21148426,12.5960371 C7.49329311,14.6132309 9.20352128,16.323459 11.2275612,17.6096627 C13.3974399,19.0168212 15.8671376,19.8953812 18.4223594,20.1731719 C18.6691395,20.1954747 18.9138868,20.1127033 19.0964736,19.9451924 C19.2790605,19.7776816 19.3825651,19.5409557 19.3815521,19.2896 L19.3815521,16.6496 Z" id="path-1"></path>
    </defs>
    <g id="Symbols" stroke="none" stroke-width="1" fill-rule="evenodd">
        <g id="phone-outgoing">
            <mask id="mask-2">
                <use xlink:href="#path-1"></use>
            </mask>
            <use id="Combined-Shape" fill-rule="nonzero" xlink:href="#path-1"></use>
            <g id="COLOR/-black" mask="url(#mask-2)">
                <g transform="translate(1.000000, 0.000000)" id="Rectangle">
                    <rect x="0" y="0" width="23" height="24"></rect>
                </g>
            </g>
        </g>
    </g>
</svg>