<svg width="26px" height="24px" viewBox="0 0 26 24" version="1.1" xmlns="http://www.w3.org/2000/svg" xmlns:xlink="http://www.w3.org/1999/xlink">
    <defs>
        <path d="M16.25,8.16666667 L19.5,8.16666667 C20.6492715,8.16666667 21.7514717,8.62321297 22.5641294,9.43587061 C23.376787,10.2485283 23.8333333,11.3507285 23.8333333,12.5 C23.8333333,14.8932339 21.8932339,16.8333333 19.5,16.8333333 L16.25,16.8333333 C15.6516915,16.8333333 15.1666667,17.3183582 15.1666667,17.9166667 C15.1666667,18.5149751 15.6516915,19 16.25,19 L19.5,19 C23.0898509,19 26,16.0898509 26,12.5 C26,10.7760928 25.3151805,9.12279238 24.0961941,7.90380592 C22.8772076,6.68481946 21.2239072,6 19.5,6 L16.25,6 C15.6516915,6 15.1666667,6.48502485 15.1666667,7.08333333 C15.1666667,7.68164181 15.6516915,8.16666667 16.25,8.16666667 Z M9.75,16.8333333 C10.3483085,16.8333333 10.8333333,17.3183582 10.8333333,17.9166667 C10.8333333,18.5149751 10.3483085,19 9.75,19 L6.5,19 C4.77609282,19 3.12279238,18.3151805 1.90380592,17.0961941 C0.684819462,15.8772076 0,14.2239072 0,12.5 C-2.88657986e-16,8.91014913 2.91014913,6 6.5,6 L9.75,6 C10.3483085,6 10.8333333,6.48502485 10.8333333,7.08333333 C10.8333333,7.68164181 10.3483085,8.16666667 9.75,8.16666667 L6.5,8.16666667 C4.10676608,8.16666667 2.16666667,10.1067661 2.16666667,12.5 C2.16666667,13.6492715 2.62321297,14.7514717 3.43587061,15.5641294 C4.24852825,16.376787 5.35072854,16.8333333 6.5,16.8333333 L9.75,16.8333333 Z M8.66666667,13.5833333 C8.06835819,13.5833333 7.58333333,13.0983085 7.58333333,12.5 C7.58333333,11.9016915 8.06835819,11.4166667 8.66666667,11.4166667 L17.3333333,11.4166667 C17.9316418,11.4166667 18.4166667,11.9016915 18.4166667,12.5 C18.4166667,13.0983085 17.9316418,13.5833333 17.3333333,13.5833333 L8.66666667,13.5833333 Z" id="path-1"></path>
    </defs>
    <g id="Symbols" stroke="none" stroke-width="1" fill-rule="evenodd">
        <g id="link-2">
            <mask id="mask-2">
                <use xlink:href="#path-1"></use>
            </mask>
            <use id="Combined-Shape" fill-rule="nonzero" xlink:href="#path-1"></use>
            <g id="COLOR/-black" mask="url(#mask-2)">
                <g transform="translate(0.000000, -1.000000)" id="Rectangle">
                    <rect x="0" y="0" width="26" height="26"></rect>
                </g>
            </g>
        </g>
    </g>
</svg>