<svg width="32px" height="32px" viewBox="0 0 32 32" version="1.1" xmlns="http://www.w3.org/2000/svg" xmlns:xlink="http://www.w3.org/1999/xlink">
    <path fill="#00aadb" d="M15.0034542,9.12111398 C14.3842801,8.57073695 14.328509,7.62262839 14.878886,7.00345424 C15.429263,6.38428009 16.3773716,6.328509 16.9965458,6.87888602 L25.9965458,14.878886 C27.0274292,15.7952269 26.3792757,17.5 25,17.5 L6,17.5 C5.17157288,17.5 4.5,16.8284271 4.5,16 C4.5,15.1715729 5.17157288,14.5 6,14.5 L21.054701,14.5 L15.0034542,9.12111398 Z M16.9965458,25.121114 C16.3773716,25.671491 15.429263,25.6157199 14.878886,24.9965458 C14.328509,24.3773716 14.3842801,23.429263 15.0034542,22.878886 L24.0034542,14.878886 C24.6226284,14.328509 25.570737,14.3842801 26.121114,15.0034542 C26.671491,15.6226284 26.6157199,16.570737 25.9965458,17.121114 L16.9965458,25.121114 Z" id="Path-2"></path>
</svg>