<svg id="zam_ilustration_ishodnik-03" xmlns="http://www.w3.org/2000/svg" xmlns:xlink="http://www.w3.org/1999/xlink" viewBox="0 0 227.047 177.369">
  <defs>
    <style>
      .cls-1, .cls-40 {
        fill: none;
      }

      .cls-2 {
        fill: #d89c82;
      }

      .cls-3 {
        fill: #f4bda4;
      }

      .cls-4 {
        clip-path: url(#clip-path);
      }

      .cls-5 {
        fill: #ebac8b;
      }

      .cls-6 {
        fill: url(#linear-gradient);
      }

      .cls-7 {
        fill: #f3f8ff;
      }

      .cls-8 {
        fill: url(#linear-gradient-2);
      }

      .cls-9 {
        fill: url(#linear-gradient-3);
      }

      .cls-10 {
        fill: url(#linear-gradient-4);
      }

      .cls-11 {
        fill: url(#linear-gradient-5);
      }

      .cls-12 {
        fill: url(#linear-gradient-6);
      }

      .cls-13 {
        fill: url(#linear-gradient-7);
      }

      .cls-14 {
        fill: url(#linear-gradient-8);
      }

      .cls-15 {
        fill: url(#linear-gradient-9);
      }

      .cls-16 {
        fill: url(#linear-gradient-10);
      }

      .cls-17 {
        fill: #7889a3;
        opacity: 0.29;
      }

      .cls-18 {
        fill: url(#linear-gradient-11);
      }

      .cls-19 {
        opacity: 0.63;
        fill: url(#linear-gradient-12);
      }

      .cls-20 {
        fill: url(#linear-gradient-13);
      }

      .cls-21 {
        fill: url(#linear-gradient-14);
      }

      .cls-22 {
        clip-path: url(#clip-path-2);
      }

      .cls-23 {
        fill: #def0f9;
      }

      .cls-24, .cls-25, .cls-28, .cls-30 {
        fill: #a8c4e9;
      }

      .cls-25 {
        opacity: 0.5;
      }

      .cls-26, .cls-27 {
        fill: #2f6596;
      }

      .cls-26, .cls-28, .cls-29 {
        font-size: 1px;
      }

      .cls-26 {
        font-family: Helvetica;
      }

      .cls-28, .cls-29 {
        font-family: MyriadPro-BoldCond, Myriad Pro;
        font-weight: 700;
        opacity: 0.98;
      }

      .cls-29 {
        fill: rgba(168,196,233,0.98);
      }

      .cls-30 {
        letter-spacing: -0.06em;
      }

      .cls-31 {
        fill: #fff;
      }

      .cls-32 {
        clip-path: url(#clip-path-3);
      }

      .cls-33 {
        clip-path: url(#clip-path-4);
      }

      .cls-34 {
        fill: url(#linear-gradient-15);
      }

      .cls-35 {
        fill: url(#linear-gradient-16);
      }

      .cls-36 {
        fill: url(#linear-gradient-17);
      }

      .cls-37 {
        fill: url(#linear-gradient-18);
      }

      .cls-38 {
        fill: url(#linear-gradient-19);
      }

      .cls-39 {
        fill: url(#linear-gradient-20);
      }

      .cls-40 {
        stroke: #92adea;
      }

      .cls-41 {
        opacity: 0.42;
        fill: url(#linear-gradient-21);
      }

      .cls-42 {
        fill: url(#linear-gradient-22);
      }

      .cls-43 {
        fill: url(#linear-gradient-23);
      }

      .cls-44 {
        opacity: 0.64;
      }

      .cls-45 {
        fill: #b04a43;
      }

      .cls-46 {
        fill: #97322b;
      }

      .cls-47, .cls-48 {
        opacity: 0.37;
      }

      .cls-47 {
        fill: url(#linear-gradient-24);
      }

      .cls-48 {
        fill: url(#linear-gradient-25);
      }

      .cls-49 {
        fill: url(#linear-gradient-26);
      }

      .cls-50 {
        fill: #09173f;
      }

      .cls-51, .cls-54 {
        opacity: 0.44;
      }

      .cls-51 {
        fill: url(#linear-gradient-27);
      }

      .cls-52 {
        fill: url(#linear-gradient-28);
      }

      .cls-53 {
        fill: url(#linear-gradient-29);
      }

      .cls-54 {
        fill: url(#linear-gradient-30);
      }

      .cls-55 {
        fill: url(#linear-gradient-31);
      }

      .cls-56, .cls-57 {
        opacity: 0.13;
      }

      .cls-56 {
        fill: url(#linear-gradient-32);
      }

      .cls-57 {
        fill: url(#linear-gradient-33);
      }
    </style>
    <clipPath id="clip-path">
      <path id="Path_60110" data-name="Path 60110" class="cls-1" d="M251.21,158.7s.761,47.915,2.665,57.425,15.228,31.56,32.321,30.8,30.456-16.751,33.082-31.18,3.046-57.045,3.046-57.045Z" transform="translate(-251.21 -158.7)"/>
    </clipPath>
    <linearGradient id="linear-gradient" x1="0.277" y1="0.047" x2="0.763" y2="1.106" gradientUnits="objectBoundingBox">
      <stop offset="0" stop-color="#794318"/>
      <stop offset="1" stop-color="#7f4a20"/>
    </linearGradient>
    <linearGradient id="linear-gradient-2" x1="0.462" y1="-0.008" x2="0.561" y2="1.057" gradientUnits="objectBoundingBox">
      <stop offset="0" stop-color="#006edb"/>
      <stop offset="1" stop-color="#002d9d"/>
    </linearGradient>
    <linearGradient id="linear-gradient-3" x1="0.5" y1="0.999" x2="0.5" gradientUnits="objectBoundingBox">
      <stop offset="0" stop-color="#006edb" stop-opacity="0"/>
      <stop offset="1" stop-color="#0087ae"/>
    </linearGradient>
    <linearGradient id="linear-gradient-4" x1="-264.976" y1="1" x2="-264.976" y2="0.001" xlink:href="#linear-gradient-3"/>
    <linearGradient id="linear-gradient-5" x1="10.204" y1="1" x2="10.204" gradientUnits="objectBoundingBox">
      <stop offset="0" stop-color="#4be479"/>
      <stop offset="1" stop-color="#00aadb"/>
    </linearGradient>
    <linearGradient id="linear-gradient-6" x1="54.198" y1="1" x2="54.198" gradientUnits="objectBoundingBox">
      <stop offset="0" stop-color="#0087ae"/>
      <stop offset="0.13" stop-color="#0082b7" stop-opacity="0.8"/>
      <stop offset="0.34" stop-color="#007bc4" stop-opacity="0.51"/>
      <stop offset="0.54" stop-color="#0075ce" stop-opacity="0.29"/>
      <stop offset="0.72" stop-color="#0071d5" stop-opacity="0.129"/>
      <stop offset="0.88" stop-color="#006fd9" stop-opacity="0.031"/>
      <stop offset="1" stop-color="#006edb" stop-opacity="0"/>
    </linearGradient>
    <linearGradient id="linear-gradient-7" x1="52.946" y1="0.5" x2="53.946" y2="0.5" xlink:href="#linear-gradient-5"/>
    <linearGradient id="linear-gradient-8" x1="35.736" y1="1" x2="35.736" y2="0" xlink:href="#linear-gradient-5"/>
    <linearGradient id="linear-gradient-9" x1="-18.279" y1="1" x2="-18.279" y2="0" xlink:href="#linear-gradient-6"/>
    <linearGradient id="linear-gradient-10" x1="-18.376" y1="0.5" x2="-17.376" y2="0.5" xlink:href="#linear-gradient-5"/>
    <linearGradient id="linear-gradient-11" x1="-185.211" y1="-255.61" x2="-184.786" y2="-251.651" gradientUnits="objectBoundingBox">
      <stop offset="0" stop-color="#003d6d"/>
      <stop offset="1" stop-color="#00458a"/>
    </linearGradient>
    <linearGradient id="linear-gradient-12" x1="-195.313" y1="-131.006" x2="-194.654" y2="-131.006" gradientUnits="objectBoundingBox">
      <stop offset="0" stop-color="#f3bfa4" stop-opacity="0"/>
      <stop offset="1" stop-color="#b26a4e"/>
    </linearGradient>
    <linearGradient id="linear-gradient-13" x1="-158.579" y1="-48.843" x2="-159.239" y2="-47.145" gradientUnits="objectBoundingBox">
      <stop offset="0" stop-color="#00aadb"/>
      <stop offset="1" stop-color="#4be479"/>
    </linearGradient>
    <linearGradient id="linear-gradient-14" x1="-435.211" y1="-315.989" x2="-434.211" y2="-315.989" gradientUnits="objectBoundingBox">
      <stop offset="0" stop-color="#f4a500"/>
      <stop offset="1" stop-color="#ffd900"/>
    </linearGradient>
    <clipPath id="clip-path-2">
      <path id="Path_60134" data-name="Path 60134" class="cls-1" d="M142.517,278.62s4.919-8.474,2.7-11.916c-3.183-4.911-2.962-5.634-4.667-14.649-2.414-12.715.868-31.85,3.236-33.54,1.8-1.287,19.157.609,27.943.967,1.317.053,3.289-10.165,4.111-10.142.944,0,.761,9.228.761,9.32a109.979,109.979,0,0,0,.761,12.944c.853,9.3,7.751,25.751,3.54,28.134-4.332,2.452-8.687,7.112-9.137,9.83s1.523,9.03,1.523,9.03Z" transform="translate(-139.699 -209.34)"/>
    </clipPath>
    <clipPath id="clip-path-3">
      <rect id="Rectangle_6072" data-name="Rectangle 6072" class="cls-1" width="16.926" height="20.345" rx="1.43"/>
    </clipPath>
    <clipPath id="clip-path-4">
      <path id="Path_60140" data-name="Path 60140" class="cls-1" d="M157.62,244.126s.091,5.749.32,6.853,1.827,3.807,3.876,3.693a4.629,4.629,0,0,0,3.967-3.739,66.356,66.356,0,0,0,.365-6.853Z" transform="translate(-157.62 -244.08)"/>
    </clipPath>
    <linearGradient id="linear-gradient-15" x1="0.279" y1="0.046" x2="0.765" y2="1.105" xlink:href="#linear-gradient"/>
    <linearGradient id="linear-gradient-16" x1="0.461" y1="-0.008" x2="0.562" y2="1.056" xlink:href="#linear-gradient-2"/>
    <linearGradient id="linear-gradient-17" x1="0.504" y1="1.001" x2="0.504" y2="0" xlink:href="#linear-gradient-3"/>
    <linearGradient id="linear-gradient-18" x1="-2150.394" y1="1" x2="-2150.394" y2="0" xlink:href="#linear-gradient-3"/>
    <linearGradient id="linear-gradient-19" x1="0.5" y1="1" x2="0.5" y2="0" xlink:href="#linear-gradient-5"/>
    <linearGradient id="linear-gradient-20" x1="-1472.525" y1="1" x2="-1472.525" y2="0" xlink:href="#linear-gradient-5"/>
    <linearGradient id="linear-gradient-21" x1="0.151" y1="0.698" x2="0.918" y2="0.698" gradientUnits="objectBoundingBox">
      <stop offset="0" stop-color="#ebac8b" stop-opacity="0"/>
      <stop offset="1" stop-color="#b9705b"/>
    </linearGradient>
    <linearGradient id="linear-gradient-22" x1="-810.985" y1="610.73" x2="-811.24" y2="609.713" gradientUnits="objectBoundingBox">
      <stop offset="0" stop-color="#b9705b"/>
      <stop offset="1" stop-color="#ebac8b"/>
    </linearGradient>
    <linearGradient id="linear-gradient-23" x1="-809.205" y1="611.014" x2="-809.461" y2="609.997" xlink:href="#linear-gradient-22"/>
    <linearGradient id="linear-gradient-24" x1="0.417" y1="0.957" x2="0.627" y2="-0.348" gradientUnits="objectBoundingBox">
      <stop offset="0" stop-color="#f3bfa4"/>
      <stop offset="1" stop-color="#7f4a20"/>
    </linearGradient>
    <linearGradient id="linear-gradient-25" x1="0.138" y1="0.833" x2="0.819" y2="-0.164" xlink:href="#linear-gradient-24"/>
    <linearGradient id="linear-gradient-26" x1="-207.684" y1="47.176" x2="-207.622" y2="47.105" xlink:href="#linear-gradient-22"/>
    <linearGradient id="linear-gradient-27" x1="534.534" y1="23.141" x2="535.481" y2="23.141" gradientUnits="objectBoundingBox">
      <stop offset="0" stop-color="#ebac8b"/>
      <stop offset="1" stop-color="#b9705b"/>
    </linearGradient>
    <linearGradient id="linear-gradient-28" x1="-304.114" y1="117.27" x2="-304.192" y2="117.337" gradientUnits="objectBoundingBox">
      <stop offset="0" stop-color="#e5dcdf"/>
      <stop offset="1" stop-color="#c7b6bc"/>
    </linearGradient>
    <linearGradient id="linear-gradient-29" x1="-190.816" y1="46.444" x2="-190.755" y2="46.374" xlink:href="#linear-gradient-22"/>
    <linearGradient id="linear-gradient-30" x1="21.782" y1="-22.695" x2="22.728" y2="-22.695" xlink:href="#linear-gradient-27"/>
    <linearGradient id="linear-gradient-31" x1="-317.922" y1="120.676" x2="-318" y2="120.744" xlink:href="#linear-gradient-28"/>
    <linearGradient id="linear-gradient-32" x1="-0.001" y1="0.5" x2="1.001" y2="0.5" xlink:href="#linear-gradient-27"/>
    <linearGradient id="linear-gradient-33" x1="337.137" y1="0.5" x2="338.139" y2="0.5" xlink:href="#linear-gradient-27"/>
  </defs>
  <path id="Path_60107" data-name="Path 60107" class="cls-2" d="M260.98,265.252l.548-26.642h54.759l1.378,26.642-14.306,22.416-15.974,4.18-21.677-17.49Z" transform="translate(-161.672 -145.773)"/>
  <path id="Path_60108" data-name="Path 60108" class="cls-3" d="M251.21,158.7s.761,47.915,2.665,57.425,15.228,31.56,32.321,30.8,30.456-16.751,33.082-31.18,3.046-57.045,3.046-57.045Z" transform="translate(-159.341 -126.707)"/>
  <g id="Group_55793" data-name="Group 55793" class="cls-4" transform="translate(91.869 31.993)">
    <path id="Path_60109" data-name="Path 60109" class="cls-5" d="M254.321,158.7s12.487,16.066,21.753,21.533c7.233,4.264,5.71,4.469,6.045,8.977.175,2.284-1.409,20.307-2.551,23.352s-.906,5.482,5.794,5.155c1.134-.053,1.69,2.657,1.058,5.931-.35,1.865.244,6.091.175,8.931-.038,1.378-2.238,2.429-2.452,5.429-.366,5.193.213,7.226,1.188,8.939.845,1.47-22.75-1.523-27.319-12.182-2.071-4.835-4.9-21.319-5.33-37.5a320.356,320.356,0,0,1,1.637-38.565Z" transform="translate(-251.549 -158.7)"/>
  </g>
  <path id="Path_60111" data-name="Path 60111" class="cls-5" d="M251.167,203.5s-3.419-6.853-7.226-6.853-4.431,7.226-2.406,12.3,6.594,16.751,8.109,15.99,4.058-.5,4.309-6.091S251.167,203.5,251.167,203.5Z" transform="translate(-156.762 -135.762)"/>
  <path id="Path_60112" data-name="Path 60112" class="cls-3" d="M340.169,203.5s3.419-6.853,7.226-6.853,4.431,7.226,2.406,12.3-6.594,16.751-8.109,15.99-4.058-.5-4.317-6.091S340.169,203.5,340.169,203.5Z" transform="translate(-179.897 -135.762)"/>
  <path id="Path_60113" data-name="Path 60113" class="cls-6" d="M249.75,185.184a36.266,36.266,0,0,1-4.081-13.705c-.761-7.987-8.9-24.365-3.335-30.806s7.416,0,7.416,0,.365-12.548,8.154-17.109,34.491-10.66,48.584-3.807,19.507,13.705,20.025,19.8a103.054,103.054,0,0,1-1.744,25.576,117.04,117.04,0,0,1-6.045,20.055L316.5,148.637a16.469,16.469,0,0,1-14.093,10.66,95.285,95.285,0,0,1-34.491-3.046c-10.378-3.046-15.944-5.33-15.944-5.33Z" transform="translate(-156.761 -116.682)"/>
  <path id="Path_60114" data-name="Path 60114" class="cls-7" d="M261.521,332.561h53.236s8.68-27.472,5.086-52.948c-4.675,0-7.842,23.71-14.337,23.6-10.515-.213-21.152.282-30.037,0-8.421-.259-18.273-25.126-18.273-25.126S249.628,310.884,261.521,332.561Z" transform="translate(-160.203 -155.193)"/>
  <path id="Path_60115" data-name="Path 60115" class="cls-8" d="M294.749,306.81,283.42,319.929l6.472,7.226-1.614,12.259h13.309l-2.7-12.449,6.472-7.226Z" transform="translate(-167.026 -162.045)"/>
  <path id="Path_60116" data-name="Path 60116" class="cls-9" d="M261.123,279.34l26.649,20.726-13.9,24.365s-17.763-20.916-18.121-30.8S261.123,279.34,261.123,279.34Z" transform="translate(-160.421 -155.491)"/>
  <path id="Path_60117" data-name="Path 60117" class="cls-7" d="M259.753,273.6l28.415,25.286-14.39,17.3s-17.626-14.071-17.984-23.954A43.722,43.722,0,0,1,259.753,273.6Z" transform="translate(-160.429 -154.122)"/>
  <path id="Path_60118" data-name="Path 60118" class="cls-10" d="M324.224,280,298.58,300.192l13.9,24.365s17.763-20.916,18.121-30.8S324.224,280,324.224,280Z" transform="translate(-170.643 -155.648)"/>
  <path id="Path_60119" data-name="Path 60119" class="cls-7" d="M326.57,273.6,298.3,298.886l14.238,17.3s17.626-14.071,17.984-23.954A43.779,43.779,0,0,0,326.57,273.6Z" transform="translate(-170.577 -154.122)"/>
  <path id="Path_60120" data-name="Path 60120" class="cls-11" d="M238.344,273.6s-5.254,42.3,4.462,57.867H166.05l6.091-20.741a27.045,27.045,0,0,1,16.56-18.784Z" transform="translate(-139.021 -154.122)"/>
  <path id="Path_60121" data-name="Path 60121" class="cls-12" d="M234.467,300.658l-5.611-.937c-1.827-.3-3.807,1.987-3.183,3.738l9.2,28.172h20.086s-6.754-19.4-6.023-38.337,2.376-19.035,2.376-19.035L229.8,282.468Z" transform="translate(-153.219 -154.279)"/>
  <path id="Path_60122" data-name="Path 60122" class="cls-13" d="M236.237,300.5l-5.612-.937a2.452,2.452,0,0,0-2.726,3.206l8.741,28.72h20.877s-8.056-19.423-6.814-38.337c1.058-16.134,2.353-19.553,2.353-19.553l-20.542,7.919Z" transform="translate(-153.747 -154.121)"/>
  <path id="Path_60123" data-name="Path 60123" class="cls-14" d="M333.986,273.6s5.109,42.3-4.606,57.867h75.659L400,310.726a27.06,27.06,0,0,0-16.56-18.784Z" transform="translate(-177.993 -154.122)"/>
  <path id="Path_60124" data-name="Path 60124" class="cls-15" d="M352.672,300.658l5.619-.937c1.827-.3,3.807,1.987,3.183,3.738l-9.2,28.172h-19.8s6.426-19.4,5.7-38.337S335.8,274.26,335.8,274.26l21.509,8.208Z" transform="translate(-178.732 -154.279)"/>
  <path id="Path_60125" data-name="Path 60125" class="cls-16" d="M350.653,300.5l5.619-.937A2.452,2.452,0,0,1,359,302.769l-8.741,28.72H329.38s8.048-19.423,6.815-38.337c-1.058-16.134-2.353-19.553-2.353-19.553l20.558,7.9Z" transform="translate(-177.993 -154.122)"/>
  <path id="Path_60126" data-name="Path 60126" class="cls-5" d="M196.119,236.008s3.548,1.2,4.934-2.018,7.393-11.185,3.571-13.705-12.548,8.68-12.624,11C191.954,232.962,192.837,235.072,196.119,236.008Z" transform="translate(-145.212 -141.313)"/>
  <path id="Path_60127" data-name="Path 60127" class="cls-17" d="M179.789,335.946l-3.457-27.076c2.634-.761,1.9-1.614,1.9-1.614.1.32-2.6-7.652-2.6-7.652-.16-.7-1.591.563-2.132,1.119l-2.284-4.523s-12.411-8.421-26.359-.586a1.5,1.5,0,0,1-.046.449c-.365.122-.761.244-1.089.381a2.657,2.657,0,0,0-1.523,1.409c-.678,1.523-1.629,3.921-2.391,5.9a10.305,10.305,0,0,1-1.568.853h1.241c-.525,1.386-.891,2.391-.891,2.391l.343-.137a2.581,2.581,0,0,0,1.523,1.378l-6.715,27.7Z" transform="translate(-131.311 -158.578)"/>
  <path id="Path_60128" data-name="Path 60128" class="cls-5" d="M142.517,278.62s4.919-8.474,2.7-11.916c-3.183-4.911-2.962-5.634-4.667-14.649-2.414-12.715.868-31.85,3.236-33.54,1.8-1.287,19.157.609,27.943.967,1.317.053,3.289-10.165,4.111-10.142.944,0,.761,9.228.761,9.32a109.979,109.979,0,0,0,.761,12.944c.853,9.3,7.751,25.751,3.54,28.134-4.332,2.452-8.687,7.112-9.137,9.83s1.523,9.03,1.523,9.03Z" transform="translate(-132.733 -138.789)"/>
  <path id="Path_60129" data-name="Path 60129" class="cls-2" d="M141.788,236.2c-2.406-12.715.335-15.99,2.7-17.687,1.8-1.287,19.157.609,27.943.967,1.317.053,3.282-10.165,4.112-10.142.944,0,.761,9.228.761,9.32a109.967,109.967,0,0,0,.761,12.944c.853,9.3-3.807,6.175-8.033,8.558C165.726,242.644,143.5,245.217,141.788,236.2Z" transform="translate(-133.009 -138.789)"/>
  <path id="Path_60130" data-name="Path 60130" class="cls-18" d="M176.77,310.819s1.233,1.6-6.814,2.284-31.605,1.386-32.626-2.81c4.964-2.992,6.015-3.244,6.015-3.244l30.829,1.69Z" transform="translate(-132.168 -162.102)"/>
  <path id="Path_60131" data-name="Path 60131" class="cls-19" d="M173.9,304.625l-2.178-9.221s-14.725-7.683-28.674.152c-.35,6.5-6.594,8.992-6.594,8.992Z" transform="translate(-131.958 -158.52)"/>
  <path id="Path_60132" data-name="Path 60132" class="cls-20" d="M172.069,303.76,139,303.813l-8.451,34.872h45.98Z" transform="translate(-130.55 -161.318)"/>
  <path id="Path_60133" data-name="Path 60133" class="cls-7" d="M176.656,307.779l-3.518-9.754a2.475,2.475,0,0,0-1.523-1.416c-3.693-1.226-16.241-4.652-29.626.3a2.657,2.657,0,0,0-1.523,1.409c-1.3,2.871-3.617,9.137-3.617,9.137s6.792-2.848,21.2-2.619A73.39,73.39,0,0,1,176.656,307.779Z" transform="translate(-132.053 -159.063)"/>
  <ellipse id="Ellipse_16" data-name="Ellipse 16" class="cls-21" cx="2.627" cy="2.627" rx="2.627" ry="2.627" transform="translate(7.987 151.534)"/>
  <g id="Group_55794" data-name="Group 55794" class="cls-22" transform="translate(6.966 70.551)">
    <rect id="Rectangle_6061" data-name="Rectangle 6061" class="cls-17" width="64.315" height="39.913" rx="3" transform="translate(3.937 14.992)"/>
  </g>
  <rect id="Rectangle_6062" data-name="Rectangle 6062" class="cls-23" width="64.315" height="39.913" rx="3" transform="translate(9.868 83.091)"/>
  <rect id="Rectangle_6063" data-name="Rectangle 6063" class="cls-24" width="10.842" height="1.987" rx="0.36" transform="translate(37.636 94.954)"/>
  <rect id="Rectangle_6064" data-name="Rectangle 6064" class="cls-25" width="8.307" height="0.784" rx="0.14" transform="translate(37.636 93.164)"/>
  <rect id="Rectangle_6065" data-name="Rectangle 6065" class="cls-24" width="16.492" height="1.987" rx="0.36" transform="translate(37.636 101.136)"/>
  <rect id="Rectangle_6066" data-name="Rectangle 6066" class="cls-25" width="6.084" height="0.784" rx="0.14" transform="translate(37.636 99.347)"/>
  <rect id="Rectangle_6067" data-name="Rectangle 6067" class="cls-24" width="13.263" height="1.987" rx="0.36" transform="translate(37.636 107.311)"/>
  <rect id="Rectangle_6068" data-name="Rectangle 6068" class="cls-25" width="7.157" height="0.784" rx="0.14" transform="translate(37.636 105.522)"/>
  <text id="_000009929" data-name="000009929" class="cls-26" transform="translate(55.049 91.027)"><tspan x="0" y="0">000009929</tspan></text>
  <path id="Path_60135" data-name="Path 60135" class="cls-27" d="M208.429,259.6c0-.358,1.188.1,1.37.129a2.8,2.8,0,0,0,.975,0,2.49,2.49,0,0,0,1.6-.9c.556-.761-.274-1.782-1.028-1.028a5.853,5.853,0,0,0-.9,2.208l-.518,1.485a3.494,3.494,0,0,1-.289.67c-.16.251-.624.716-1.005.556-1.378-.586,1.523-2.383,1.972-2.642.206-.114,1.226-.761,1.431-.449a5.242,5.242,0,0,1-.244.876c-.076.3-.168.586-.244.883a.216.216,0,0,0,.373.213,7.147,7.147,0,0,0,.914-1.317l-.4-.053a4.08,4.08,0,0,0,.122.678.221.221,0,0,0,.327.137,7.909,7.909,0,0,0,1.119-.967l-.365-.152a2.787,2.787,0,0,1-.114.967.221.221,0,0,0,.4.168l.571-.982h-.388l.183.4a.236.236,0,0,0,.312.076c1.31-.586,2.5-1.173,2.429-2.8a.221.221,0,0,0-.4-.114,15.268,15.268,0,0,0-2.391,5.292.229.229,0,1,0,.442.122,19.3,19.3,0,0,1,2.322-5.193l-.4-.107c.129,1.439-1.134,1.926-2.223,2.414l.312.076-.19-.388a.229.229,0,0,0-.388,0l-.563.99.4.167a3.045,3.045,0,0,0,.114-1.081.221.221,0,0,0-.365-.152,7.191,7.191,0,0,1-1.035.891l.32.129c-.046-.228-.091-.457-.129-.678a.221.221,0,0,0-.4-.053,7.2,7.2,0,0,1-.853,1.226l.373.213a12.44,12.44,0,0,0,.411-1.827c0-.213.046-.442-.183-.556-.487-.244-1.843.647-2.246.891a4.682,4.682,0,0,0-1.98,1.744.967.967,0,0,0,.541,1.348,1.363,1.363,0,0,0,1.469-.853,23.476,23.476,0,0,0,1.112-3.1l.183-.541q.091-.761.434-.137c.358.2.35.365,0,.518a2.514,2.514,0,0,1-.571.289,2.618,2.618,0,0,1-1.706,0c-.4-.129-1.3-.51-1.211.3a.111.111,0,0,0,.221,0Z" transform="translate(-149.002 -150.29)"/>
  <path id="Path_60136" data-name="Path 60136" class="cls-27" d="M220.921,260.7l.959-.48a1.774,1.774,0,0,0,.761-.457.168.168,0,0,0-.145-.251c-.3-.038-.6.19-.86.32a8.609,8.609,0,0,0-.906.571.175.175,0,0,0,.175.3Z" transform="translate(-152.053 -150.758)"/>
  <text id="_000009929_JOHN_009900009" data-name="000009929&lt;&lt;&lt;&lt;&lt;&lt;&lt;JOHN&lt;&lt;&lt;&lt;&lt;&lt;&lt;009900009" class="cls-28" transform="translate(16.454 116.649)"><tspan x="0" y="0">000009929&lt;&lt;&lt;&lt;&lt;&lt;&lt;JOHN&lt;&lt;&lt;&lt;&lt;&lt;&lt;009900009</tspan></text>
  <text id="_0000_IVANOV_009900009_12" data-name="0000&lt;&lt;&lt;&lt;&lt;IVANOV&lt;&lt;&lt;&lt;&lt;&lt;&lt;009900009&lt;&lt;&lt;12" class="cls-29" transform="translate(16.454 119.321)"><tspan x="0" y="0">0000&lt;&lt;&lt;&lt;&lt;I</tspan><tspan class="cls-30" y="0">V</tspan><tspan class="cls-24" y="0">ANOV&lt;&lt;&lt;&lt;&lt;&lt;&lt;009900009&lt;&lt;&lt;12</tspan></text>
  <rect id="Rectangle_6069" data-name="Rectangle 6069" class="cls-24" width="11.322" height="1.355" rx="0.24" transform="translate(57.272 101.311)"/>
  <rect id="Rectangle_6070" data-name="Rectangle 6070" class="cls-25" width="3.784" height="0.533" rx="0.1" transform="translate(57.272 100.085)"/>
  <rect id="Rectangle_6071" data-name="Rectangle 6071" class="cls-31" width="16.926" height="20.345" rx="1.65" transform="translate(16.454 92.114)"/>
  <g id="Group_55796" data-name="Group 55796" class="cls-32" transform="translate(16.454 92.114)">
    <path id="Path_60137" data-name="Path 60137" class="cls-2" d="M158.8,256.575l.061-2.855h6.563l.19,3.068-1.736,2.817-1.919.5-2.6-2.1Z" transform="translate(-153.744 -241.492)"/>
    <path id="Path_60138" data-name="Path 60138" class="cls-3" d="M157.62,244.126s.091,5.749.32,6.853,1.827,3.807,3.876,3.693a4.629,4.629,0,0,0,3.967-3.739,66.356,66.356,0,0,0,.365-6.853Z" transform="translate(-153.463 -239.192)"/>
    <g id="Group_55795" data-name="Group 55795" class="cls-33" transform="translate(4.157 4.888)">
      <path id="Path_60139" data-name="Path 60139" class="cls-5" d="M157.62,247.548a23.569,23.569,0,0,1,2.65,0,1.233,1.233,0,0,1,1.226,1.134,24.162,24.162,0,0,1-.5,2.916c-.137.365.046.64.5.64s.266,3.107.175,3.289-2.726-.19-3.274-1.462S157.62,247.548,157.62,247.548Z" transform="translate(-157.62 -244.899)"/>
    </g>
    <path id="Path_60141" data-name="Path 60141" class="cls-5" d="M157.6,249.512s-.411-.822-.86-.822-.533.868-.289,1.477.761,2,.967,1.911.487-.061.518-.723A7.3,7.3,0,0,0,157.6,249.512Z" transform="translate(-153.151 -240.292)"/>
    <path id="Path_60142" data-name="Path 60142" class="cls-3" d="M168.085,249.512s.411-.822.868-.822.533.868.289,1.477-.761,2-.975,1.911-.487-.061-.518-.723A7.3,7.3,0,0,1,168.085,249.512Z" transform="translate(-155.88 -240.292)"/>
    <path id="Path_60143" data-name="Path 60143" class="cls-34" d="M157.449,247.318a4.28,4.28,0,0,1-.487-1.637c-.091-.959-1.066-2.924-.4-3.693s.891,0,.891,0,.046-1.523.975-2.056,4.134-1.279,5.825-.457,2.444,1.645,2.406,2.376-.936,5.467-.936,5.467l-.266-4.378a1.98,1.98,0,0,1-1.69,1.279,11.42,11.42,0,0,1-4.134-.366c-1.241-.365-1.911-.64-1.911-.64Z" transform="translate(-153.155 -238.006)"/>
    <path id="Path_60144" data-name="Path 60144" class="cls-7" d="M158.914,263.773H165.3a13.7,13.7,0,0,0,.556-5.832c-.556,0-.937,2.84-1.713,2.825h-3.6c-1.066,0-2.193-3.046-2.193-3.046S157.5,261.177,158.914,263.773Z" transform="translate(-153.576 -242.446)"/>
    <path id="Path_60145" data-name="Path 60145" class="cls-35" d="M162.845,261.21l-1.355,1.568.769.868-.19,1.508h1.591l-.32-1.53.777-.861Z" transform="translate(-154.386 -243.279)"/>
    <path id="Path_60146" data-name="Path 60146" class="cls-36" d="M158.794,257.92l3.2,2.482-1.675,2.909s-2.124-2.5-2.17-3.693A2.041,2.041,0,0,1,158.794,257.92Z" transform="translate(-153.586 -242.494)"/>
    <path id="Path_60147" data-name="Path 60147" class="cls-7" d="M158.642,257.23l3.411,3.046-1.728,2.056s-2.109-1.683-2.155-2.871A5.178,5.178,0,0,1,158.642,257.23Z" transform="translate(-153.594 -242.329)"/>
    <path id="Path_60148" data-name="Path 60148" class="cls-37" d="M166.386,258l-3.046,2.421,1.667,2.916s2.132-2.505,2.17-3.693A1.782,1.782,0,0,0,166.386,258Z" transform="translate(-154.828 -242.513)"/>
    <path id="Path_60149" data-name="Path 60149" class="cls-7" d="M166.658,257.23l-3.388,3.046,1.706,2.071s2.117-1.683,2.155-2.87A5.178,5.178,0,0,0,166.658,257.23Z" transform="translate(-154.811 -242.329)"/>
    <path id="Path_60150" data-name="Path 60150" class="cls-38" d="M157.058,257.23s-.868,4.568.289,6.426c-4.523,0-5.6.426-5.6.426l-.221-4.508Z" transform="translate(-152.01 -242.329)"/>
    <path id="Path_60151" data-name="Path 60151" class="cls-39" d="M167.629,257.23s.876,4.568-.289,6.426l5.33.084.289-4.211Z" transform="translate(-155.782 -242.329)"/>
  </g>
  <rect id="Rectangle_6073" data-name="Rectangle 6073" class="cls-40" width="16.926" height="20.345" rx="1.57" transform="translate(16.454 92.114)"/>
  <rect id="Rectangle_6074" data-name="Rectangle 6074" class="cls-24" width="30.494" height="0.982" rx="0.14" transform="translate(27.814 86.167)"/>
  <rect id="Rectangle_6075" data-name="Rectangle 6075" class="cls-24" width="21.456" height="0.982" rx="0.14" transform="translate(30.433 87.956)"/>
  <path id="Path_60152" data-name="Path 60152" class="cls-17" d="M178.77,208.379s-2.711-.069-2.2,3.152-.259,12.5,4.02,12.609,5.124-15.6,3.944-16.621S180.773,207.237,178.77,208.379Z" transform="translate(-141.516 -138.239)"/>
  <path id="Path_60153" data-name="Path 60153" class="cls-17" d="M167.379,217.655s-2.65.586-1.386,3.586,2.741,12.182,6.929,11.276,1.241-16.378-.16-17.078S169.046,216.064,167.379,217.655Z" transform="translate(-138.925 -140.199)"/>
  <path id="Path_60154" data-name="Path 60154" class="cls-5" d="M165.607,220.183c.914,3.129,3.525,11.992,7.614,10.8s.67-13.5-.274-15.616S163.917,214.442,165.607,220.183Z" transform="translate(-138.86 -139.993)"/>
  <path id="Path_60155" data-name="Path 60155" class="cls-17" d="M153.833,223.324c.647,3.19,1.766,12.373,6.007,11.787s2.634-14.086,1.972-15.5C161.028,217.941,152.812,218.276,153.833,223.324Z" transform="translate(-136.085 -141.025)"/>
  <path id="Path_60156" data-name="Path 60156" class="cls-17" d="M144.3,224.905c.51,2.429,1.34,9.411,4.568,8.962s2.025-10.713,1.523-11.779C149.664,220.687,143.283,220.109,144.3,224.905Z" transform="translate(-133.804 -141.594)"/>
  <path id="Path_60157" data-name="Path 60157" class="cls-5" d="M179.342,205.375s-3.388.83-2.878,4.051-.259,12.495,4.02,12.6,5.558-13.111,4.454-14.977C184.146,205.71,182.395,204.484,179.342,205.375Z" transform="translate(-141.493 -137.771)"/>
  <path id="Path_60158" data-name="Path 60158" class="cls-5" d="M153.872,221.834c.647,3.19,1.759,12.373,6.007,11.787s2.627-14.086,1.972-15.5C161.067,216.451,152.844,216.786,153.872,221.834Z" transform="translate(-136.094 -140.669)"/>
  <path id="Path_60159" data-name="Path 60159" class="cls-5" d="M144.686,223.372c.51,2.421,1.34,9.4,4.568,8.962s2.025-10.721,1.523-11.787C150.062,219.131,143.681,218.575,144.686,223.372Z" transform="translate(-133.897 -141.225)"/>
  <path id="Path_60160" data-name="Path 60160" class="cls-41" d="M288.855,231.71a38.377,38.377,0,0,0,7.568,1.363c2.673-.008,6.639-2.041,7.446-.267s-8.33,1.82-10.309,1.439S286.913,232.784,288.855,231.71Z" transform="translate(-168.212 -144.127)"/>
  <g id="Group_55797" data-name="Group 55797" transform="translate(129.779 88.342)">
    <path id="Path-283" class="cls-42" d="M301,233.912c.655-.228,2.1-1.264,2.977-1.2s1.279.365,1.173.761-1.881.343-2.535.388S301.685,233.889,301,233.912Z" transform="translate(-301 -232.707)"/>
  </g>
  <g id="Group_55798" data-name="Group 55798" transform="translate(122.523 88.342)">
    <path id="Path-283-2" data-name="Path-283" class="cls-43" d="M295.635,233.912c-.647-.228-2.1-1.264-2.977-1.2s-1.272.365-1.173.761,1.888.343,2.543.388S294.957,233.889,295.635,233.912Z" transform="translate(-291.47 -232.707)"/>
  </g>
  <g id="Group_55799" data-name="Group 55799" class="cls-44" transform="translate(114.544 98.212)">
    <path id="Path_60161" data-name="Path 60161" class="cls-45" d="M305.758,245.67c-5.33,6.449-11.665,6.853-13.119,6.807s-6.441-.8-11.649-6.807a42.7,42.7,0,0,0,11.885,2.939A42.882,42.882,0,0,0,305.758,245.67Z" transform="translate(-280.99 -245.67)"/>
    <path id="Path_60162" data-name="Path 60162" class="cls-46" d="M305.365,245.794c-3.807.86-7.089.084-11.276,1.827a3.221,3.221,0,0,1-2.383,0c-4.15-1.858-6.853-1.043-10.705-1.911,1.409,1.31,6.243,3.541,11.878,3.556C298.367,249.372,303.986,247.1,305.365,245.794Z" transform="translate(-280.992 -245.68)"/>
  </g>
  <path id="Path_60163" data-name="Path 60163" class="cls-47" d="M255.55,151.384s32.831,12.6,48.622,6.3A44.443,44.443,0,0,0,326.481,137.5s-16.553-1.142-22.309-3.046-25.941-9.571-34.7-4.409S256.372,138.326,255.55,151.384Z" transform="translate(-160.376 -119.452)"/>
  <path id="Path_60164" data-name="Path 60164" class="cls-48" d="M253.045,156.971s-5.87-10.2-7.652-2.2a12.434,12.434,0,0,0,3.426,11.8S249.459,159.233,253.045,156.971Z" transform="translate(-157.871 -125.039)"/>
  <path id="Path-21" class="cls-49" d="M309.315,190.416c-.426.944-.685,6.9.419,10.1l15.7-2.284c3.145.449,2.779-3.16,2.779-3.228.343-4.721-3.3-5.33-5.33-6.754C319.723,186.068,309.962,189,309.315,190.416Z" transform="translate(-173.118 -133.571)"/>
  <path id="Path-166" class="cls-50" d="M309.64,190.52a.975.975,0,0,0,1.074.708c1.363-.19,3.518-1.523,9.457-1.469,1.667,0,4.873.876,9.045,3.16-2.665-3.183-3.632-3.6-4.18-3.944a15.228,15.228,0,0,0-8.094-2.284c-2.7.091-4.682.99-6.152,1.173a1.576,1.576,0,0,0-1.332,1.919C309.5,189.972,309.571,190.246,309.64,190.52Z" transform="translate(-173.229 -133.385)"/>
  <path id="Path_60165" data-name="Path 60165" class="cls-51" d="M334.552,199.27l-3.632,2.056,3.3,1.766-1.584-1.622Z" transform="translate(-178.36 -136.387)"/>
  <g id="Group-19-Copy-2" transform="translate(136.556 61.414)">
    <path id="Path-275-Copy" class="cls-50" d="M309.9,202.594c.761-3.579,3.639-5.589,7.469-5.208s6.723,2.855,8.3,3.51a6.977,6.977,0,0,1-.883.548c-4.98,2.87-6.54,2.162-8.429,2.208A25.448,25.448,0,0,1,309.9,202.594Z" transform="translate(-309.9 -197.34)"/>
    <g id="Path-275" transform="translate(0 1.097)">
      <path id="path-68" class="cls-52" d="M309.9,202.937a7.667,7.667,0,0,1,6.853-4.157c2.52.061,4.378,1.134,8.01,2.711-3.868,1.8-6.144,2.665-7.865,2.627A30.507,30.507,0,0,1,309.9,202.937Z" transform="translate(-309.9 -198.78)"/>
    </g>
    <g id="Group_55800" data-name="Group 55800" transform="translate(3.559 0.9)">
      <ellipse id="Oval-3-Copy" class="cls-50" cx="3.068" cy="3.16" rx="3.068" ry="3.16" transform="matrix(0.014, -1, 1, 0.014, 0, 6.136)"/>
    </g>
    <g id="Group_55801" data-name="Group 55801" transform="translate(5.847 2.604)">
      <ellipse id="Oval-7" class="cls-31" cx="0.898" cy="0.921" rx="0.898" ry="0.921" transform="translate(0 1.797) rotate(-89.49)"/>
    </g>
  </g>
  <path id="Path-21-2" data-name="Path-21" class="cls-53" d="M280.489,190.209c.434.944.7,6.853-.4,10.1l-15.708-2.231c-3.137.457-3.738-3.952-3.716-4.013,1.066-3.343,7.507-5.33,9.548-6.777C273.362,185.077,279.849,188.793,280.489,190.209Z" transform="translate(-161.597 -133.364)"/>
  <path id="Path-166-2" data-name="Path-166" class="cls-50" d="M280.8,189.807a.974.974,0,0,1-1.074.708c-1.363-.19-3.518-1.523-9.456-1.447-1.667,0-4.873.876-9.038,3.175,2.657-3.19,3.624-3.617,4.172-3.959A15.228,15.228,0,0,1,273.5,186c2.7.076,4.683.982,6.144,1.157a1.576,1.576,0,0,1,1.34,1.919C280.935,189.274,280.851,189.518,280.8,189.807Z" transform="translate(-161.731 -133.221)"/>
  <path id="Path_60166" data-name="Path 60166" class="cls-54" d="M260.46,199.31l3.639,2.048-3.3,1.766,1.584-1.614Z" transform="translate(-161.548 -136.396)"/>
  <g id="Group-19-Copy-2-2" data-name="Group-19-Copy-2" transform="translate(102.788 61.419)">
    <path id="Path-275-Copy-2" data-name="Path-275-Copy" class="cls-50" d="M281.318,202.6c-.761-3.579-3.647-5.589-7.477-5.2s-6.715,2.87-8.292,3.525a7.449,7.449,0,0,0,.876.548c4.995,2.863,6.548,2.155,8.436,2.193A25.119,25.119,0,0,0,281.318,202.6Z" transform="translate(-265.55 -197.347)"/>
    <g id="Path-275-2" data-name="Path-275" transform="translate(0.914 1.098)">
      <path id="path-68-2" data-name="path-68" class="cls-55" d="M281.6,202.94a7.675,7.675,0,0,0-6.853-4.15c-2.52.069-4.37,1.142-8,2.726,3.868,1.8,6.144,2.657,7.865,2.612a30.165,30.165,0,0,0,6.99-1.188Z" transform="translate(-266.75 -198.79)"/>
    </g>
    <g id="Group_55802" data-name="Group 55802" transform="translate(5.785 0.903)">
      <ellipse id="Oval-3-Copy-2" data-name="Oval-3-Copy" class="cls-50" cx="3.16" cy="3.068" rx="3.16" ry="3.068" transform="translate(0 0.1) rotate(-0.91)"/>
    </g>
    <g id="Group_55803" data-name="Group 55803" transform="translate(7.939 2.639)">
      <ellipse id="Oval-7-2" data-name="Oval-7" class="cls-31" cx="0.982" cy="0.967" rx="0.982" ry="0.967" transform="translate(0 0.02) rotate(-0.573)"/>
    </g>
  </g>
  <path id="Path_60167" data-name="Path 60167" class="cls-56" d="M314.208,238.78s3.754,3.639,3.579,6.579c-.16,2.741-3.914,6.853-4.447,7.66s5.939-5.482,5.779-8.086S314.208,238.78,314.208,238.78Z" transform="translate(-174.158 -145.814)"/>
  <path id="Path_60168" data-name="Path 60168" class="cls-57" d="M279.2,238.78s-3.754,3.639-3.579,6.579c.16,2.741,3.913,6.853,4.447,7.66s-5.939-5.482-5.779-8.086S279.2,238.78,279.2,238.78Z" transform="translate(-164.847 -145.814)"/>
</svg>
