<svg xmlns="http://www.w3.org/2000/svg" viewBox="0 0 152.049 213.068">
  <defs>
    <style>
      .cls-1 {
        fill: #7889a3;
        opacity: 0.6;
      }

      .cls-2, .cls-9 {
        fill: #fff;
      }

      .cls-2, .cls-4 {
        stroke: #92adea;
        stroke-width: 2px;
      }

      .cls-3 {
        fill: #ecf8ff;
      }

      .cls-4 {
        fill: none;
        stroke-linecap: round;
        stroke-linejoin: round;
      }

      .cls-5 {
        fill: #9dbce4;
      }

      .cls-6, .cls-7, .cls-8 {
        fill: #a8c4e9;
      }

      .cls-7 {
        opacity: 0.5;
      }

      .cls-8 {
        font-size: 1px;
        font-family: Helvetica-Oblique, Helvetica;
        font-style: oblique;
      }
    </style>
  </defs>
  <g id="zam_ilustration_ishodnik-02" transform="translate(1 1)">
    <rect id="Rectangle_5945" data-name="Rectangle 5945" class="cls-1" width="145.368" height="205.828" rx="2.41" transform="translate(5.681 6.24)"/>
    <rect id="Rectangle_5946" data-name="Rectangle 5946" class="cls-2" width="145.368" height="205.828" rx="2.41"/>
    <rect id="Rectangle_5947" data-name="Rectangle 5947" class="cls-3" width="131.292" height="8.151" transform="translate(7.042 57.932)"/>
    <path id="Path_60102" data-name="Path 60102" class="cls-4" d="M347.793,230.407H216.51V152.8H347.793Z" transform="translate(-209.468 -94.868)"/>
    <line id="Line_2" data-name="Line 2" class="cls-4" x1="131.283" transform="translate(7.042 66.082)"/>
    <line id="Line_3" data-name="Line 3" class="cls-4" x2="131.283" transform="translate(7.042 76.775)"/>
    <path id="Path_60103" data-name="Path 60103" class="cls-5" d="M224.573,122.21h.5v.508h.509v.508h-2.529v-.508h.5v-1.008h1.019Zm6.577,4.549h.509v-.508h-.509Zm-6.076-4.549h.509v-.5h-.509Zm7.086,4.549h.509v-.508h-.509Zm-6.076.508H227.1v-.508h-1.019Zm4.557,0v-.508h-.5v.508Zm-2.02,0h.5v-1.017h-.5Zm-4.048-6.573v.508h1.51v-.508Zm-.509.508v-.508h-1.01v1.017h.5V121.2Zm1.519-1.008H222.07v-3.506h3.512Zm-.509-3.032h-2.529v2.524h2.529Zm-2.02,9.089h1.519v-1.516h-1.519Zm5.093-.535v.5h.509v-.5Zm-3.512-8.081h-1.581v1.516h1.519Zm8.1-1.017v3.506h-3.512v-3.506Zm-.509.508h-2.529v2.524h2.529ZM222,123.683h3.512v3.506H222Zm.509,3.032h2.529v-2.524h-2.529Zm0-6.065H222v2.533h.509Zm6.577,2.533v.5h.509v-.5Zm-1.519,2.016v-.508h-.5v.508h-1.019v1.017h1.019v.5h.5v-1h.58v-.508Zm-1.519-6.564h1.019v-.508h-1.019Zm4.057,4.04h1.01v.508h.544v-1.516h-.509V120.65h-.509v1.56h-1.519v.508h.509v.508h.509Zm.5,1.516h-.5v-.508H229.6v1.008h-1.449v.508h1.01v1.017h.509v.5h.509v-1h2.02v-.508h-1.519Zm0,0h.509v-1.008h-.509Zm-4.048,0v-.508h.509v-.5h.5v-.508h.58v-1.008h1.519V120.65h-.509v.508h-.5v-2.025h-.509v-1.008h.509V116.61h-.509v1.017h-.509V116.61h-1.519v1.017h.509v-.508h.509v1.008h.5v1.516h.509v.508h-.509v1.008h-.5v-1.008h-.509v-.508h-.509v1.008h.509v.508h-.509v1.516h.509v-1.008h.509v1.008h-.509v.508h-.509v1.507h1.019v-.5Zm5.567.5v-.5h-1.01v.5Zm-.509-7.064H230.1v1.516h1.554Zm-4.048,6.564h1.019v-.508h-.439v-.5h-.509Zm1.019-1.008v-.508h-.439v.508Zm3.073-2.025h1.019v-.508h-1.019Zm.509,4.04h.509v-.508h-.509Zm0-3.032h.509v-.5h-.509Zm-4.557-2.524h-.5v.508h.5Zm0,0" transform="translate(-210.137 -90.396)"/>
    <rect id="Rectangle_5948" data-name="Rectangle 5948" class="cls-6" width="24.314" height="2.927" rx="0.46" transform="translate(60.527 60.543)"/>
    <rect id="Rectangle_5949" data-name="Rectangle 5949" class="cls-6" width="16.789" height="2.927" rx="0.46" transform="translate(11.986 69.965)"/>
    <rect id="Rectangle_5950" data-name="Rectangle 5950" class="cls-6" width="22.224" height="2.927" rx="0.46" transform="translate(48.312 69.965)"/>
    <rect id="Rectangle_5951" data-name="Rectangle 5951" class="cls-6" width="21.206" height="2.927" rx="0.46" transform="translate(75.463 69.965)"/>
    <rect id="Rectangle_5952" data-name="Rectangle 5952" class="cls-6" width="47.68" height="2.927" rx="0.46" transform="translate(89.442 17.73)"/>
    <rect id="Rectangle_5953" data-name="Rectangle 5953" class="cls-6" width="38.021" height="2.927" rx="0.46" transform="translate(89.442 22.796)"/>
    <rect id="Rectangle_5954" data-name="Rectangle 5954" class="cls-6" width="38.021" height="2.927" rx="0.46" transform="translate(89.442 27.765)"/>
    <rect id="Rectangle_5955" data-name="Rectangle 5955" class="cls-6" width="15.138" height="2.927" rx="0.46" transform="translate(89.442 12.945)"/>
    <rect id="Rectangle_5956" data-name="Rectangle 5956" class="cls-6" width="34.957" height="2.147" rx="0.33" transform="translate(26.957 26.705)"/>
    <rect id="Rectangle_5957" data-name="Rectangle 5957" class="cls-6" width="27.871" height="2.147" rx="0.33" transform="translate(26.957 30.421)"/>
    <rect id="Rectangle_5958" data-name="Rectangle 5958" class="cls-6" width="27.871" height="2.147" rx="0.33" transform="translate(26.957 34.067)"/>
    <rect id="Rectangle_5959" data-name="Rectangle 5959" class="cls-6" width="16.789" height="2.927" rx="0.46" transform="translate(115.056 69.965)"/>
    <rect id="Rectangle_5960" data-name="Rectangle 5960" class="cls-6" width="8.596" height="2.927" rx="0.46" transform="translate(35.027 69.965)"/>
    <rect id="Rectangle_5961" data-name="Rectangle 5961" class="cls-6" width="8.596" height="2.927" rx="0.46" transform="translate(101.446 69.965)"/>
    <rect id="Rectangle_5962" data-name="Rectangle 5962" class="cls-7" width="16.666" height="1.148" rx="0.18" transform="translate(11.986 79.649)"/>
    <rect id="Rectangle_5963" data-name="Rectangle 5963" class="cls-7" width="8.412" height="1.148" rx="0.18" transform="translate(35.29 79.649)"/>
    <rect id="Rectangle_5964" data-name="Rectangle 5964" class="cls-7" width="22.303" height="1.148" rx="0.18" transform="translate(48.312 79.649)"/>
    <rect id="Rectangle_5965" data-name="Rectangle 5965" class="cls-7" width="21.285" height="1.148" rx="0.18" transform="translate(75.463 79.649)"/>
    <rect id="Rectangle_5966" data-name="Rectangle 5966" class="cls-7" width="8.676" height="1.148" rx="0.18" transform="translate(101.446 79.649)"/>
    <rect id="Rectangle_5967" data-name="Rectangle 5967" class="cls-7" width="16.789" height="1.148" rx="0.18" transform="translate(115.056 79.649)"/>
    <rect id="Rectangle_5968" data-name="Rectangle 5968" class="cls-7" width="16.666" height="1.148" rx="0.18" transform="translate(11.986 83.681)"/>
    <rect id="Rectangle_5969" data-name="Rectangle 5969" class="cls-7" width="8.412" height="1.148" rx="0.18" transform="translate(35.29 83.681)"/>
    <rect id="Rectangle_5970" data-name="Rectangle 5970" class="cls-7" width="22.303" height="1.148" rx="0.18" transform="translate(48.312 83.681)"/>
    <rect id="Rectangle_5971" data-name="Rectangle 5971" class="cls-7" width="21.285" height="1.148" rx="0.18" transform="translate(75.463 83.681)"/>
    <rect id="Rectangle_5972" data-name="Rectangle 5972" class="cls-7" width="8.676" height="1.148" rx="0.18" transform="translate(101.446 83.681)"/>
    <rect id="Rectangle_5973" data-name="Rectangle 5973" class="cls-7" width="16.789" height="1.148" rx="0.18" transform="translate(115.056 83.681)"/>
    <rect id="Rectangle_5974" data-name="Rectangle 5974" class="cls-7" width="16.666" height="1.148" rx="0.18" transform="translate(11.986 87.713)"/>
    <rect id="Rectangle_5975" data-name="Rectangle 5975" class="cls-7" width="8.412" height="1.148" rx="0.18" transform="translate(35.29 87.713)"/>
    <rect id="Rectangle_5976" data-name="Rectangle 5976" class="cls-7" width="22.303" height="1.148" rx="0.18" transform="translate(48.312 87.713)"/>
    <rect id="Rectangle_5977" data-name="Rectangle 5977" class="cls-7" width="21.285" height="1.148" rx="0.18" transform="translate(75.463 87.713)"/>
    <rect id="Rectangle_5978" data-name="Rectangle 5978" class="cls-7" width="8.676" height="1.148" rx="0.18" transform="translate(101.446 87.713)"/>
    <rect id="Rectangle_5979" data-name="Rectangle 5979" class="cls-7" width="16.789" height="1.148" rx="0.18" transform="translate(115.056 87.713)"/>
    <rect id="Rectangle_5980" data-name="Rectangle 5980" class="cls-7" width="16.666" height="1.148" rx="0.18" transform="translate(11.986 91.744)"/>
    <rect id="Rectangle_5981" data-name="Rectangle 5981" class="cls-7" width="8.412" height="1.148" rx="0.18" transform="translate(35.29 91.744)"/>
    <rect id="Rectangle_5982" data-name="Rectangle 5982" class="cls-7" width="22.303" height="1.148" rx="0.18" transform="translate(48.312 91.744)"/>
    <rect id="Rectangle_5983" data-name="Rectangle 5983" class="cls-7" width="21.285" height="1.148" rx="0.18" transform="translate(75.463 91.744)"/>
    <rect id="Rectangle_5984" data-name="Rectangle 5984" class="cls-7" width="8.676" height="1.148" rx="0.18" transform="translate(101.446 91.744)"/>
    <rect id="Rectangle_5985" data-name="Rectangle 5985" class="cls-7" width="16.789" height="1.148" rx="0.18" transform="translate(115.056 91.744)"/>
    <rect id="Rectangle_5986" data-name="Rectangle 5986" class="cls-7" width="16.666" height="1.148" rx="0.18" transform="translate(11.986 95.776)"/>
    <rect id="Rectangle_5987" data-name="Rectangle 5987" class="cls-7" width="8.412" height="1.148" rx="0.18" transform="translate(35.29 95.776)"/>
    <rect id="Rectangle_5988" data-name="Rectangle 5988" class="cls-7" width="22.303" height="1.148" rx="0.18" transform="translate(48.312 95.776)"/>
    <rect id="Rectangle_5989" data-name="Rectangle 5989" class="cls-7" width="21.285" height="1.148" rx="0.18" transform="translate(75.463 95.776)"/>
    <rect id="Rectangle_5990" data-name="Rectangle 5990" class="cls-7" width="8.676" height="1.148" rx="0.18" transform="translate(101.446 95.776)"/>
    <rect id="Rectangle_5991" data-name="Rectangle 5991" class="cls-7" width="16.789" height="1.148" rx="0.18" transform="translate(115.056 95.776)"/>
    <rect id="Rectangle_5992" data-name="Rectangle 5992" class="cls-7" width="16.666" height="1.148" rx="0.18" transform="translate(11.986 99.807)"/>
    <rect id="Rectangle_5993" data-name="Rectangle 5993" class="cls-7" width="8.412" height="1.148" rx="0.18" transform="translate(35.29 99.807)"/>
    <rect id="Rectangle_5994" data-name="Rectangle 5994" class="cls-7" width="22.303" height="1.148" rx="0.18" transform="translate(48.312 99.807)"/>
    <rect id="Rectangle_5995" data-name="Rectangle 5995" class="cls-7" width="21.285" height="1.148" rx="0.18" transform="translate(75.463 99.807)"/>
    <rect id="Rectangle_5996" data-name="Rectangle 5996" class="cls-7" width="8.676" height="1.148" rx="0.18" transform="translate(101.446 99.807)"/>
    <rect id="Rectangle_5997" data-name="Rectangle 5997" class="cls-7" width="16.789" height="1.148" rx="0.18" transform="translate(115.056 99.807)"/>
    <rect id="Rectangle_5998" data-name="Rectangle 5998" class="cls-7" width="16.666" height="1.148" rx="0.18" transform="translate(11.986 103.839)"/>
    <rect id="Rectangle_5999" data-name="Rectangle 5999" class="cls-7" width="8.412" height="1.148" rx="0.18" transform="translate(35.29 103.839)"/>
    <rect id="Rectangle_6000" data-name="Rectangle 6000" class="cls-7" width="22.303" height="1.148" rx="0.18" transform="translate(48.312 103.839)"/>
    <rect id="Rectangle_6001" data-name="Rectangle 6001" class="cls-7" width="21.285" height="1.148" rx="0.18" transform="translate(75.463 103.839)"/>
    <rect id="Rectangle_6002" data-name="Rectangle 6002" class="cls-7" width="8.676" height="1.148" rx="0.18" transform="translate(101.446 103.839)"/>
    <rect id="Rectangle_6003" data-name="Rectangle 6003" class="cls-7" width="16.789" height="1.148" rx="0.18" transform="translate(115.056 103.839)"/>
    <rect id="Rectangle_6004" data-name="Rectangle 6004" class="cls-7" width="16.666" height="1.148" rx="0.18" transform="translate(11.986 107.862)"/>
    <rect id="Rectangle_6005" data-name="Rectangle 6005" class="cls-7" width="8.412" height="1.148" rx="0.18" transform="translate(35.29 107.862)"/>
    <rect id="Rectangle_6006" data-name="Rectangle 6006" class="cls-7" width="22.303" height="1.148" rx="0.18" transform="translate(48.312 107.862)"/>
    <rect id="Rectangle_6007" data-name="Rectangle 6007" class="cls-7" width="21.285" height="1.148" rx="0.18" transform="translate(75.463 107.862)"/>
    <rect id="Rectangle_6008" data-name="Rectangle 6008" class="cls-7" width="8.676" height="1.148" rx="0.18" transform="translate(101.446 107.862)"/>
    <rect id="Rectangle_6009" data-name="Rectangle 6009" class="cls-7" width="16.789" height="1.148" rx="0.18" transform="translate(115.056 107.862)"/>
    <rect id="Rectangle_6010" data-name="Rectangle 6010" class="cls-7" width="16.666" height="1.148" rx="0.18" transform="translate(11.986 111.893)"/>
    <rect id="Rectangle_6011" data-name="Rectangle 6011" class="cls-7" width="8.412" height="1.148" rx="0.18" transform="translate(35.29 111.893)"/>
    <rect id="Rectangle_6012" data-name="Rectangle 6012" class="cls-7" width="22.303" height="1.148" rx="0.18" transform="translate(48.312 111.893)"/>
    <rect id="Rectangle_6013" data-name="Rectangle 6013" class="cls-7" width="21.285" height="1.148" rx="0.18" transform="translate(75.463 111.893)"/>
    <rect id="Rectangle_6014" data-name="Rectangle 6014" class="cls-7" width="8.676" height="1.148" rx="0.18" transform="translate(101.446 111.893)"/>
    <rect id="Rectangle_6015" data-name="Rectangle 6015" class="cls-7" width="16.789" height="1.148" rx="0.18" transform="translate(115.056 111.893)"/>
    <rect id="Rectangle_6016" data-name="Rectangle 6016" class="cls-7" width="16.666" height="1.148" rx="0.18" transform="translate(11.986 115.925)"/>
    <rect id="Rectangle_6017" data-name="Rectangle 6017" class="cls-7" width="8.412" height="1.148" rx="0.18" transform="translate(35.29 115.925)"/>
    <rect id="Rectangle_6018" data-name="Rectangle 6018" class="cls-7" width="22.303" height="1.148" rx="0.18" transform="translate(48.312 115.925)"/>
    <rect id="Rectangle_6019" data-name="Rectangle 6019" class="cls-7" width="21.285" height="1.148" rx="0.18" transform="translate(75.463 115.925)"/>
    <rect id="Rectangle_6020" data-name="Rectangle 6020" class="cls-7" width="8.676" height="1.148" rx="0.18" transform="translate(101.446 115.925)"/>
    <rect id="Rectangle_6021" data-name="Rectangle 6021" class="cls-7" width="16.789" height="1.148" rx="0.18" transform="translate(115.056 115.925)"/>
    <rect id="Rectangle_6022" data-name="Rectangle 6022" class="cls-7" width="16.666" height="1.148" rx="0.18" transform="translate(11.986 119.956)"/>
    <rect id="Rectangle_6023" data-name="Rectangle 6023" class="cls-7" width="8.412" height="1.148" rx="0.18" transform="translate(35.29 119.956)"/>
    <rect id="Rectangle_6024" data-name="Rectangle 6024" class="cls-7" width="22.303" height="1.148" rx="0.18" transform="translate(48.312 119.956)"/>
    <rect id="Rectangle_6025" data-name="Rectangle 6025" class="cls-7" width="21.285" height="1.148" rx="0.18" transform="translate(75.463 119.956)"/>
    <rect id="Rectangle_6026" data-name="Rectangle 6026" class="cls-7" width="8.676" height="1.148" rx="0.18" transform="translate(101.446 119.956)"/>
    <rect id="Rectangle_6027" data-name="Rectangle 6027" class="cls-7" width="16.789" height="1.148" rx="0.18" transform="translate(115.056 119.956)"/>
    <rect id="Rectangle_6028" data-name="Rectangle 6028" class="cls-7" width="16.666" height="1.148" rx="0.18" transform="translate(11.986 123.988)"/>
    <rect id="Rectangle_6029" data-name="Rectangle 6029" class="cls-7" width="8.412" height="1.148" rx="0.18" transform="translate(35.29 123.988)"/>
    <rect id="Rectangle_6030" data-name="Rectangle 6030" class="cls-7" width="22.303" height="1.148" rx="0.18" transform="translate(48.312 123.988)"/>
    <rect id="Rectangle_6031" data-name="Rectangle 6031" class="cls-7" width="21.285" height="1.148" rx="0.18" transform="translate(75.463 123.988)"/>
    <rect id="Rectangle_6032" data-name="Rectangle 6032" class="cls-7" width="8.676" height="1.148" rx="0.18" transform="translate(101.446 123.988)"/>
    <rect id="Rectangle_6033" data-name="Rectangle 6033" class="cls-7" width="16.789" height="1.148" rx="0.18" transform="translate(115.056 123.988)"/>
    <rect id="Rectangle_6034" data-name="Rectangle 6034" class="cls-7" width="16.666" height="1.148" rx="0.18" transform="translate(11.986 128.019)"/>
    <rect id="Rectangle_6035" data-name="Rectangle 6035" class="cls-7" width="8.412" height="1.148" rx="0.18" transform="translate(35.29 128.019)"/>
    <rect id="Rectangle_6036" data-name="Rectangle 6036" class="cls-7" width="22.303" height="1.148" rx="0.18" transform="translate(48.312 128.019)"/>
    <rect id="Rectangle_6037" data-name="Rectangle 6037" class="cls-7" width="21.285" height="1.148" rx="0.18" transform="translate(75.463 128.019)"/>
    <rect id="Rectangle_6038" data-name="Rectangle 6038" class="cls-7" width="8.676" height="1.148" rx="0.18" transform="translate(101.446 128.019)"/>
    <rect id="Rectangle_6039" data-name="Rectangle 6039" class="cls-7" width="16.789" height="1.148" rx="0.18" transform="translate(115.056 128.019)"/>
    <rect id="Rectangle_6040" data-name="Rectangle 6040" class="cls-3" width="131.292" height="8.151" transform="translate(7.042 145.346)"/>
    <path id="Path_60104" data-name="Path 60104" class="cls-4" d="M347.793,295.607H216.51V252.54H347.793Z" transform="translate(-209.468 -107.194)"/>
    <line id="Line_4" data-name="Line 4" class="cls-4" x1="131.283" transform="translate(7.042 153.506)"/>
    <line id="Line_5" data-name="Line 5" class="cls-4" x2="75.788" transform="translate(7.042 170.263)"/>
    <line id="Line_6" data-name="Line 6" class="cls-4" x2="41.841" transform="translate(40.989 161.884)"/>
    <line id="Line_7" data-name="Line 7" class="cls-4" x2="55.451" transform="translate(82.874 165.504)"/>
    <line id="Line_8" data-name="Line 8" class="cls-4" x2="55.451" transform="translate(82.874 171.393)"/>
    <line id="Line_9" data-name="Line 9" class="cls-4" x2="55.451" transform="translate(82.874 177.274)"/>
    <line id="Line_10" data-name="Line 10" class="cls-4" x2="55.451" transform="translate(82.874 183.164)"/>
    <rect id="Rectangle_6041" data-name="Rectangle 6041" class="cls-6" width="16.789" height="2.927" rx="0.46" transform="translate(53.511 175.811)"/>
    <rect id="Rectangle_6042" data-name="Rectangle 6042" class="cls-6" width="16.789" height="2.927" rx="0.46" transform="translate(117.357 166.985)"/>
    <rect id="Rectangle_6043" data-name="Rectangle 6043" class="cls-6" width="22.224" height="2.927" rx="0.46" transform="translate(12.803 156.985)"/>
    <rect id="Rectangle_6044" data-name="Rectangle 6044" class="cls-6" width="22.224" height="2.927" rx="0.46" transform="translate(50.797 181.7)"/>
    <rect id="Rectangle_6045" data-name="Rectangle 6045" class="cls-6" width="22.224" height="2.927" rx="0.46" transform="translate(12.803 162.752)"/>
    <rect id="Rectangle_6046" data-name="Rectangle 6046" class="cls-6" width="21.206" height="2.927" rx="0.46" transform="translate(13.312 174.838)"/>
    <rect id="Rectangle_6047" data-name="Rectangle 6047" class="cls-6" width="21.206" height="2.927" rx="0.46" transform="translate(13.312 179.527)"/>
    <rect id="Rectangle_6048" data-name="Rectangle 6048" class="cls-6" width="21.206" height="2.927" rx="0.46" transform="translate(86.14 166.985)"/>
    <rect id="Rectangle_6049" data-name="Rectangle 6049" class="cls-6" width="21.206" height="2.927" rx="0.46" transform="translate(86.14 172.866)"/>
    <rect id="Rectangle_6050" data-name="Rectangle 6050" class="cls-6" width="21.206" height="2.927" rx="0.46" transform="translate(99.997 157.695)"/>
    <rect id="Rectangle_6051" data-name="Rectangle 6051" class="cls-6" width="16.789" height="2.927" rx="0.46" transform="translate(53.511 156.231)"/>
    <rect id="Rectangle_6052" data-name="Rectangle 6052" class="cls-6" width="8.596" height="2.927" rx="0.46" transform="translate(48.312 164.61)"/>
    <rect id="Rectangle_6053" data-name="Rectangle 6053" class="cls-6" width="8.596" height="2.927" rx="0.46" transform="translate(105.827 178.755)"/>
    <rect id="Rectangle_6054" data-name="Rectangle 6054" class="cls-6" width="8.596" height="2.927" rx="0.46" transform="translate(121.448 172.866)"/>
    <rect id="Rectangle_6055" data-name="Rectangle 6055" class="cls-6" width="8.596" height="2.927" rx="0.46" transform="translate(68.386 164.04)"/>
    <text id="CENTRAL" class="cls-8" transform="translate(23.849 13.296)"><tspan x="0" y="0">CENTRAL</tspan></text>
    <line id="Line_11" data-name="Line 11" class="cls-4" y2="34.899" transform="translate(40.989 153.506)"/>
    <line id="Line_12" data-name="Line 12" class="cls-4" y2="34.899" transform="translate(82.83 153.506)"/>
    <line id="Line_13" data-name="Line 13" class="cls-4" y2="8.379" transform="translate(61.905 161.884)"/>
    <ellipse id="Ellipse_12" data-name="Ellipse 12" class="cls-6" cx="5.11" cy="5.101" rx="5.11" ry="5.101" transform="translate(11.327 10.254)"/>
    <path id="Path_60105" data-name="Path 60105" class="cls-9" d="M229.148,104.642a2.5,2.5,0,0,1-.878,1.5,2.637,2.637,0,0,1-1.668.535,2.224,2.224,0,0,1-1.677-.631,2.407,2.407,0,0,1-.615-1.753,3.788,3.788,0,0,1,.351-1.639,2.824,2.824,0,0,1,1.036-1.21,2.752,2.752,0,0,1,1.6-.473,2.206,2.206,0,0,1,1.528.508,1.69,1.69,0,0,1,.58,1.341v.105h-.931a1.208,1.208,0,0,0-.334-.876,1.337,1.337,0,0,0-.878-.28,1.6,1.6,0,0,0-.878.237,1.842,1.842,0,0,0-.615.6,2.958,2.958,0,0,0-.36.815,3.3,3.3,0,0,0-.123.876,1.821,1.821,0,0,0,.36,1.192,1.292,1.292,0,0,0,1.027.421,1.468,1.468,0,0,0,.975-.324,1.753,1.753,0,0,0,.553-.929Z" transform="translate(-210.418 -88.463)"/>
    <rect id="Rectangle_6056" data-name="Rectangle 6056" class="cls-7" width="27.273" height="1.472" rx="0.23" transform="translate(89.363 37.958)"/>
    <rect id="Rectangle_6057" data-name="Rectangle 6057" class="cls-7" width="19.186" height="1.472" rx="0.23" transform="translate(89.363 40.903)"/>
    <rect id="Rectangle_6058" data-name="Rectangle 6058" class="cls-7" width="27.273" height="1.472" rx="0.23" transform="translate(27.352 42.822)"/>
  </g>
</svg>
