<svg width="24px" height="24px" viewBox="0 0 24 24" version="1.1" xmlns="http://www.w3.org/2000/svg" xmlns:xlink="http://www.w3.org/1999/xlink">
    <defs>
        <path d="M2.46666667,7 C1.65664903,7 1,6.55228475 1,6 C1,5.44771525 1.65664903,5 2.46666667,5 L21.5333333,5 C22.343351,5 23,5.44771525 23,6 C23,6.55228475 22.343351,7 21.5333333,7 L2.46666667,7 Z M2.46666667,13 C1.65664903,13 1,12.5522847 1,12 C1,11.4477153 1.65664903,11 2.46666667,11 L21.5333333,11 C22.343351,11 23,11.4477153 23,12 C23,12.5522847 22.343351,13 21.5333333,13 L2.46666667,13 Z M2.46666667,19 C1.65664903,19 1,18.5522847 1,18 C1,17.4477153 1.65664903,17 2.46666667,17 L21.5333333,17 C22.343351,17 23,17.4477153 23,18 C23,18.5522847 22.343351,19 21.5333333,19 L2.46666667,19 Z" id="path-1"></path>
    </defs>
    <g id="Symbols" stroke="none" stroke-width="1" fill="none" fill-rule="evenodd">
        <g id="burger">
            <mask id="mask-2" fill="white">
                <use xlink:href="#path-1"></use>
            </mask>
            <use id="Combined-Shape" fill="#000000" fill-rule="nonzero" xlink:href="#path-1"></use>
            <g id="COLOR/-black" mask="url(#mask-2)" fill="#000000">
                <rect id="Rectangle" x="0" y="0" width="31" height="24"></rect>
            </g>
        </g>
    </g>
</svg>