<svg version="1.1" xmlns="http://www.w3.org/2000/svg" xmlns:xlink="http://www.w3.org/1999/xlink" x="0px" y="0px"
	 viewBox="0 0 73.3 71.5" style="enable-background:new 0 0 73.3 71.5;" xml:space="preserve">
	<path fill="#4ce479" d="M69.4,16.8c-1.4-1.9-3-3.6-4.6-5.2c-0.4-0.4-0.8-0.8-1.2-1.1c-3.7-3.3-7.9-5.9-12.4-7.7C46.6,1,41.7,0,36.6,0
	C25.8,0,16,4.3,8.5,11.5c-1.7,1.6-3.3,3.4-4.8,5.4c-1.4,1.8-2.6,3.8-3.7,5.8l10.6,9.5c1-2.1,2.2-4.1,3.5-6c1.5-1.9,3.1-3.7,5-5.2
	c4.9-4,11-6.4,17.6-6.4c0.5,0,0.9,0,1.4,0.1c5.5,0.3,10.6,2.2,14.9,5.4c0.5,0.3,0.9,0.7,1.4,1L20.3,51.5c4.3,3.2,9.4,5.1,14.9,5.4
	l27.6-24.7l10.5-9.4C72.1,20.7,70.8,18.7,69.4,16.8z"/>
	<path fill="#00aadb" d="M59.2,45.4c-1.5,1.9-3.1,3.7-5,5.2c-4.9,4-11,6.4-17.6,6.4c-4.6,0-9-1.2-12.8-3.3c-0.1,0-0.1-0.1-0.2-0.1
	c-0.5-0.3-1.1-0.6-1.6-0.9c-0.1,0-0.1-0.1-0.2-0.1c-0.5-0.3-1-0.7-1.5-1.1c0,0,0,0,0,0l0,0c-0.5-0.3-0.9-0.7-1.4-1L53,20l0,0
	c-4.3-3.2-9.4-5.1-14.9-5.4l0,0L10.5,39.3L0,48.7c1.1,2.1,2.4,4.1,3.9,6c1.4,1.9,3,3.6,4.6,5.2c7.5,7.2,17.4,11.6,28.2,11.6
	c10.7,0,20.6-4.3,28-11.5c1.7-1.6,3.3-3.4,4.8-5.4c1.4-1.8,2.6-3.8,3.7-5.8l-10.6-9.5C61.7,41.5,60.5,43.5,59.2,45.4z"/>
</svg>
