<svg width="34px" height="34px" viewBox="0 0 34 34" version="1.1" xmlns="http://www.w3.org/2000/svg" xmlns:xlink="http://www.w3.org/1999/xlink">
    <defs>
        <polygon id="path-1" points="0 0.161792019 22.6918758 0.161792019 22.6918758 17.8625353 0 17.8625353"></polygon>
        <polygon id="path-3" points="0 0.0204882668 22.6918758 0.0204882668 22.6918758 17.7212316 0 17.7212316"></polygon>
    </defs>
    <g id="Symbols" stroke="none" stroke-width="1" fill="none" fill-rule="evenodd">
        <g id="zam-">
            <g id="zam">
                <g id="bitcoin" fill="#4CE479" fill-rule="nonzero">
                    <path d="M33.4911554,21.1125084 C31.2203511,30.2196348 21.9952748,35.7621098 12.8860234,33.4910391 C3.78049107,31.2204996 -1.76263056,21.9959682 0.509236411,12.8893731 C2.77897815,3.78118433 12.0040544,-1.76182192 21.1106493,0.508717539 C30.2193695,2.779257 35.7619598,12.0048509 33.4911554,21.1125084 Z" id="coin"></path>
                </g>
                <g id="Group-12" transform="translate(6.000000, 6.000000)">
                    <g id="Group-15-Copy">
                        <mask id="mask-2" fill="white">
                            <use xlink:href="#path-1"></use>
                        </mask>
                        <g id="Clip-14"></g>
                        <path d="M20.0635211,3.7766187 C19.9377713,3.65505706 19.8092341,3.537848 19.6797676,3.42157165 C18.5427549,2.40368719 17.2468515,1.59099631 15.8391361,1.03075569 C14.4320402,0.470825968 12.9140616,0.161792019 11.3291816,0.161792019 C8.00146023,0.161792019 4.96209594,1.50798618 2.64254033,3.7284293 C2.10825893,4.23985873 1.61207411,4.79761215 1.15956099,5.39609339 C0.732135872,5.9616193 0.345594892,6.56476403 -6.19456698e-05,7.19775509 L3.27035969,10.1419719 C3.57327402,9.47664729 3.94092157,8.8532941 4.36741751,8.2837265 C4.8196209,7.68027088 5.33810615,7.13899512 5.90738686,6.66736081 C7.42133903,5.41226015 9.30758468,4.66454723 11.3555085,4.66454723 C11.498603,4.66454723 11.63891,4.6769832 11.7804558,4.68413389 C13.4923244,4.77149661 15.0775141,5.37743943 16.4099655,6.36485575 C16.5515113,6.46993973 16.6936766,6.57409101 16.8296474,6.68725837 L6.28184843,16.1815026 C7.61460952,17.1689189 9.19948948,17.7751726 10.9116678,17.8625353 L19.4545951,10.17244 L22.6918758,7.25838046 C22.3381661,6.60300465 21.9401651,5.97965146 21.4988022,5.39609339 C21.0599172,4.81595521 20.5792188,4.27499035 20.0635211,3.7766187 Z" id="Fill-13" fill="#FFFFFF" mask="url(#mask-2)"></path>
                    </g>
                    <g id="Group-18-Copy" transform="translate(0.000000, 4.000000)">
                        <mask id="mask-4" fill="white">
                            <use xlink:href="#path-3"></use>
                        </mask>
                        <g id="Clip-17"></g>
                        <path d="M16.784427,11.2156628 C15.2704749,12.4707634 13.3842292,13.2181655 11.3363054,13.2181655 C9.90721876,13.2181655 8.55990044,12.8475734 7.35939336,12.2012137 C7.14227379,12.0830719 6.98090532,11.9879367 6.82201467,11.8872054 C6.80002396,11.8732149 6.77834298,11.8589135 6.75635226,11.844923 C6.59498379,11.7407718 6.43671261,11.6328897 6.28215816,11.5181678 C6.14030258,11.4130839 5.99813726,11.3089326 5.86247625,11.1957652 L16.4099655,1.70152102 C15.0775141,0.714104705 13.4923244,0.107850983 11.7804558,0.0204882668 L3.23721876,7.71058356 L-6.19456698e-05,10.6246431 C0.353647829,11.2800189 0.751958486,11.9033721 1.19301166,12.4869302 C1.63189673,13.0670684 2.11290485,13.6080332 2.62860255,14.1067158 C4.95435273,16.3548289 8.01199099,17.7212316 11.3626323,17.7212316 C14.6903537,17.7212316 17.7300277,16.3750374 20.0492736,14.1545943 C20.583555,13.6431649 21.0797398,13.0854114 21.5322529,12.4869302 C21.9599877,11.9214043 22.3465287,11.3182596 22.6918758,10.6852685 L19.4214542,7.7410517 C19.1188496,8.4063763 18.7508923,9.02972948 18.3243964,9.59929708 C17.872193,10.2027527 17.3540175,10.7440285 16.784427,11.2156628 Z" id="Fill-16" fill="#FFFFFF" mask="url(#mask-4)"></path>
                    </g>
                </g>
            </g>
        </g>
    </g>
</svg>