<svg width="16px" height="16px" viewBox="0 0 16 16" version="1.1" xmlns="http://www.w3.org/2000/svg" xmlns:xlink="http://www.w3.org/1999/xlink">
    <g id="Symbols" stroke="none" stroke-width="1" fill-rule="evenodd">
        <g id="icons-/-system-/-16-/-ic_arrow_up_green-copy" fill-rule="nonzero">
            <g id="Group" transform="translate(8.000000, 8.000000) rotate(-180.000000) translate(-8.000000, -8.000000) translate(2.000000, 1.500000)">
                <path d="M7,3.41418853 L7,12 C7,12.5522847 6.55228475,13 6,13 C5.44771525,13 5,12.5522847 5,12 L5,3.41422654 L1.70714748,6.70710409 C1.31662467,7.09762987 0.683459695,7.09763228 0.292933919,6.70710947 C-0.0975918576,6.31658666 -0.0975942644,5.68342168 0.292928543,5.29289591 L5.29289053,0.292895907 C5.47385515,0.111929921 5.72385626,0 6,0 C6.27615341,0 6.52616235,0.111937758 6.70712847,0.292914912 L11.7071095,5.29289591 C12.0976323,5.68342168 12.0976299,6.31658666 11.7071041,6.70710947 C11.3165783,7.09763228 10.6834133,7.09762987 10.2928905,6.70710409 L7,3.41418853 Z" id="Combined-Shape"></path>
            </g>
        </g>
    </g>
</svg>